STARTFONT 2.1
FONT -FontForge-CF Night of Terror PERSONAL-Book-R-Normal--94-900-75-75-P-661-ISO10646-1
SIZE 90 75 75
FONTBOUNDINGBOX 112 104 0 -31
COMMENT "Generated by fontforge, http://fontforge.sourceforge.net"
COMMENT "Copyright (c) 2019 by Cloutierfontes. All rights reserved."
STARTPROPERTIES 40
FOUNDRY "FontForge"
FAMILY_NAME "CF Night of Terror PERSONAL"
WEIGHT_NAME "Book"
SLANT "R"
SETWIDTH_NAME "Normal"
ADD_STYLE_NAME ""
PIXEL_SIZE 94
POINT_SIZE 900
RESOLUTION_X 75
RESOLUTION_Y 75
SPACING "P"
AVERAGE_WIDTH 661
CHARSET_REGISTRY "ISO10646"
CHARSET_ENCODING "1"
FONTNAME_REGISTRY ""
CHARSET_COLLECTIONS "ISO10646-1"
FONT_NAME "CFNightofTerrorPERSONAL-Reg"
FACE_NAME "CF Night of Terror PERSONAL Regular"
COPYRIGHT "Copyright (c) 2019 by Cloutierfontes. All rights reserved."
FONT_VERSION "1.00 2019"
FONT_ASCENT 66
FONT_DESCENT 28
UNDERLINE_POSITION -9
UNDERLINE_THICKNESS 5
X_HEIGHT 69
CAP_HEIGHT 70
DEFAULT_CHAR 1
RAW_ASCENT 705
RAW_DESCENT 295
NORM_SPACE 16
RELATIVE_WEIGHT 40
RELATIVE_SETWIDTH 50
SUPERSCRIPT_X 0
SUPERSCRIPT_Y 44
SUPERSCRIPT_SIZE 61
SUBSCRIPT_X 0
SUBSCRIPT_Y 13
SUBSCRIPT_SIZE 61
AVG_LOWERCASE_WIDTH 623
AVG_UPPERCASE_WIDTH 610
ENDPROPERTIES
CHARS 92
STARTCHAR NULL.dup1
ENCODING 0
SWIDTH 0 0
DWIDTH 0 0
BBX 1 1 0 0
BITMAP
00
ENDCHAR
STARTCHAR nonmarkingreturn
ENCODING 13
SWIDTH 0 0
DWIDTH 0 0
BBX 1 1 0 0
BITMAP
00
ENDCHAR
STARTCHAR space
ENCODING 32
SWIDTH 169 0
DWIDTH 16 0
BBX 1 1 0 0
BITMAP
00
ENDCHAR
STARTCHAR exclam
ENCODING 33
SWIDTH 1000 0
DWIDTH 94 0
BBX 1 1 0 0
BITMAP
00
ENDCHAR
STARTCHAR quotedbl
ENCODING 34
SWIDTH 1000 0
DWIDTH 94 0
BBX 1 1 0 0
BITMAP
00
ENDCHAR
STARTCHAR numbersign
ENCODING 35
SWIDTH 1000 0
DWIDTH 94 0
BBX 1 1 0 0
BITMAP
00
ENDCHAR
STARTCHAR dollar
ENCODING 36
SWIDTH 1000 0
DWIDTH 94 0
BBX 1 1 0 0
BITMAP
00
ENDCHAR
STARTCHAR percent
ENCODING 37
SWIDTH 1000 0
DWIDTH 94 0
BBX 1 1 0 0
BITMAP
00
ENDCHAR
STARTCHAR ampersand
ENCODING 38
SWIDTH 1000 0
DWIDTH 94 0
BBX 1 1 0 0
BITMAP
00
ENDCHAR
STARTCHAR quotesingle
ENCODING 39
SWIDTH 1000 0
DWIDTH 94 0
BBX 1 1 0 0
BITMAP
00
ENDCHAR
STARTCHAR parenleft
ENCODING 40
SWIDTH 1000 0
DWIDTH 94 0
BBX 1 1 0 0
BITMAP
00
ENDCHAR
STARTCHAR parenright
ENCODING 41
SWIDTH 1000 0
DWIDTH 94 0
BBX 1 1 0 0
BITMAP
00
ENDCHAR
STARTCHAR asterisk
ENCODING 42
SWIDTH 1000 0
DWIDTH 94 0
BBX 1 1 0 0
BITMAP
00
ENDCHAR
STARTCHAR plus
ENCODING 43
SWIDTH 1000 0
DWIDTH 94 0
BBX 1 1 0 0
BITMAP
00
ENDCHAR
STARTCHAR comma
ENCODING 44
SWIDTH 320 0
DWIDTH 30 0
BBX 27 36 3 -19
BITMAP
003FC000
00FFFFE0
01FFFFE0
01FFFFE0
01FFFFC0
01FFFCC0
01FFFFC0
01F9FF80
01FFFF80
03FFFF80
037FFF00
03FFFF00
037FFF00
037FFE00
03FDDE00
03FFFE00
07FFFC00
07FFFC00
07FFF800
07FFF800
07FFF800
077FF000
07FFF000
0FFFE000
0FFFE000
1FFFC000
1FFFC000
3FFF8000
7FFF0000
FFFE0000
FFFC0000
FFF00000
FFE00000
7F800000
3F000000
3C000000
ENDCHAR
STARTCHAR hyphen
ENCODING 45
SWIDTH 1000 0
DWIDTH 94 0
BBX 1 1 0 0
BITMAP
00
ENDCHAR
STARTCHAR period
ENCODING 46
SWIDTH 301 0
DWIDTH 28 0
BBX 24 20 5 -1
BITMAP
060000
07FFF8
0FFFFE
0FFFFF
0FFFFE
0FFFFC
1FFFFC
1FFFFC
1FFFFC
1FFFFC
3FFFFC
3FFFFC
3FFFFC
7FFFF0
7FFFF8
7FFFF0
FFFFE0
FFFFE0
DFFFC0
80FCC0
ENDCHAR
STARTCHAR slash
ENCODING 47
SWIDTH 1000 0
DWIDTH 94 0
BBX 1 1 0 0
BITMAP
00
ENDCHAR
STARTCHAR zero
ENCODING 48
SWIDTH 565 0
DWIDTH 54 0
BBX 53 67 9 -1
BITMAP
00000003F90000
0000001FFFE000
0000007FFFF800
000001F7FFFE00
000003DFFCFF00
000007FFE7FFC0
00000FFFFFFFC0
00003FFFFFFFE0
00007FFFFFFFF0
0000FFFFFFFFF0
0001FFFFFFFFF0
0003FFFFFFFFF8
0007FFFFFFFFF8
000FFFFFFFFFF8
000FFFF8FFFFF8
001FFFE01FFFF8
003FFFC00FF7F8
003FFF800FFFF8
007BFF800FFFF8
007FFF800FFFF8
007FFF000FFFF0
00FFFF000FFFF0
00FFFE000FFFF0
00FFFE000FFFF0
00FFFE000FFFE0
01FBFC000FFFE0
01FFFC001FBFE0
03FFF8001FFBE0
03FFF8001FFBE0
07FFF8001FF7C0
07FFF8003FFFC0
07FFF0003FFFC0
0FFFF0003FFFC0
0FFFF0007FFF80
0FFFE0007FFF80
1F7FE0007FFF80
1FFFE000FFFF80
1FFBC000FFFF00
3FFBC000FFFF00
3FFFC000FFFF00
3FF78001FFFE00
7FFF8001FFFE00
7FFF8001FFFE00
7FFF0001FFFC00
7FFF0003FFFC00
FFFF0003FFF800
FFFF0003FFF800
FFFF0007FFF000
FFFF000FFFF000
FFFF000FFFE000
FFFF801FFFE000
EFFF803FFFE000
EFFF807FFFC000
EFFFE0FFFFC000
FFFFFFFFFB8000
7FFFFFFFF70000
7FFFFFFFEF0000
7FFFFFFFDE0000
3FFFFFFFFC0000
3FFFFFFFF80000
3FFFFFFFF00000
1FFFFFFFE00000
1FFFFFFFC00000
0FFFFFFF000000
07FFFFF8000000
01FFFFF0000000
000FFFC0000000
ENDCHAR
STARTCHAR one
ENCODING 49
SWIDTH 421 0
DWIDTH 40 0
BBX 36 73 15 -3
BITMAP
0000000060
000001DCF0
000007FEF0
00003FFFF0
00007FFFE0
0001FFFFE0
0003FFFEE0
000FFFFEE0
001FFFFEC0
003FFFFFC0
007FFFFDC0
01FFFFFD80
03FFFFFF80
07FFFFFF80
0FFFFFFF80
1FFFFFFF80
1FFFDFFF80
07FF1FFF00
0FFE3FFF00
0F783FEF00
1FE03FFF00
3FC07FFF00
1F807FDE00
1F007FDE00
3E007FFE00
3C00FFFC00
7800FFBC00
F000FFFC00
0000FFFC00
0001FFF800
0001FF7800
0001FFF800
0001FFF800
0003FEF000
0003FEF000
0003FFF000
0003FFE000
0007FDE000
0007FFE000
0007FFE000
0007FFE000
000FFBC000
000FFFC000
000FFFC000
000FFFC000
000FFF8000
000FFF8000
001FBF8000
001FFF8000
001FFF0000
003FFF0000
003FFF0000
003FFF0000
007FFE0000
007FFE0000
007FFE0000
007FFE0000
00FFFC0000
00FFFC0000
00FFFC0000
00FFFC0000
01EFF80000
01FFF80000
01FBF80000
01FBF80000
03DFF00000
03FFF00000
03F7F00000
03F7700000
03EF600000
036EE00000
006E600000
00CC600000
ENDCHAR
STARTCHAR two
ENCODING 50
SWIDTH 535 0
DWIDTH 50 0
BBX 56 68 4 -1
BITMAP
000000003FFC00
00000003FFFF80
0000000FFFFFC0
0000003FFFFFE0
0000007FFFFFF0
000001FFFFFFF8
000003FFFFFFFC
000007FFFFC7FE
00000FFFFFFFFE
00001FFFFFFFFF
00003FFFFFFFFF
00003FFFFFFFFF
00007FFFFFFFFF
0000FFFFC3FFFF
0000FFFF01FFFF
0001FFFC00FFFF
0001FFF800FFFE
0003FFF800FFFE
0003FFF000FFFE
0003F3E000FFFE
0000F60001FFFC
0000660001FFFC
0000000003FFF8
0000000003FFF8
0000000007FFF0
000000000FFFF0
000000001FFFE0
000000003FFFE0
000000007FFFC0
00000000FFFF80
00000001FFFF80
00000003FFFF00
00000007FFFE00
0000001FFFFC00
0000003FFFF800
0000007FFFF000
000001FFFFC000
000007FFFF8000
00000FFFFF0000
00003FFFFE0000
00007FFFFC0000
0000FFFFF80000
0001FFFFE00000
0003FFFFC00000
000FFFFF800000
001FFFFF000000
003FFFFC000000
007FFFF8000000
00FFFFF0000000
01FFFFE0000000
03FFFFC0000000
07FFFF80000000
0FFFFF00000000
1FFFFE00000000
1FFFFFFFFF1C00
1FFFFFFFFFF800
1FFFFFFFFFE000
3FFFFFFFFFF800
3FFFFFFFFFF800
3FFFFFFFFFF800
7FFFFFFFFFE000
6FFFFFFFFFE000
7FFFFFFFFFE000
DFFFFFFFFFE000
FFFFFFFFFFF000
FFFFFFFFFFE000
FFFFFFFFFF8000
001FFFFE000000
ENDCHAR
STARTCHAR three
ENCODING 51
SWIDTH 597 0
DWIDTH 56 0
BBX 58 71 8 0
BITMAP
000000007FF00000
00000007FFFF0000
0000001FFFFFE000
0000007FFFFFF800
000001FFFFFFFC00
000007FFFFFFFE00
00000FFFFFFFFF00
00001FFFFFFFFF80
00003FFFFFBFFF80
00007FFFFFFFFF80
0000FFFFFFFFFFC0
0001FFFFFFFFFFC0
0001FFFFFFFFFFC0
0003FFFFFFFFFFC0
0007EFFE3FFFFF80
0007DFF80FFFDF80
000FFBF007FFFF80
000FFFE003FFFF80
001FFFC003FFFF00
001EEEC003FFFF00
003E000003F7FE00
003C000003EFFE00
0018000003FFFC00
0010000007FFFC00
000000000FFFF800
000000001FFFF000
000000003F7FF000
00000000FFFFE000
0000000FFFFFC000
0000003FFFFF8000
0000003FFFFF0000
0000003FFFFF0000
0000007FFFFC0000
0000007FFFF80000
0000007FFFF00000
0000007FFFF80000
000000FFFFFC0000
000001FFFFFE0000
000001FFFFFE0000
000000FFFFFF0000
000000FFFFFF0000
0000003FFFFF8000
0000000FFFFF8000
00000007FFFF8000
00000003FFFF8000
00000001FFFF8000
00000000FFFF8000
00000000FFFF8000
04000000FFFF8000
0DE60000FFFF8000
1FF60000FFFF8000
7FF78001FFFF0000
7FFF8001FFFF0000
FFFF8003FFFF0000
FFFFC007FFF60000
FFFFC00FFFFC0000
7FFEF03FFDFC0000
7FFFFFFFFBF80000
7FFFFFFFFFF00000
7FFFFFFFFFE00000
3FFFFFFFFFC00000
3FFFFFFFFFC00000
3FFFFFFFFF000000
1FFFFFFFFE000000
0FFFFFFFFC000000
0FFFFFFFF8000000
07FFFFFFE0000000
03FFFFFFC0000000
01FFFFFE00000000
007FFFF800000000
000FFE0000000000
ENDCHAR
STARTCHAR four
ENCODING 52
SWIDTH 607 0
DWIDTH 57 0
BBX 57 76 8 -3
BITMAP
0000000000800000
00000000018FFF80
00000000031FFF80
000000000738FF80
000000001EB7FF80
000000003DFFFF80
000000007BFFFF00
00000000F7FFFF00
00000001EFFFFF00
00000001DFFFFE00
000000039EFFFE00
000000073DFFEE00
0000000F7FFFEC00
0000001EFFFFFC00
0000003DF7FFFC00
0000007DFFFFFC00
000000FBFFFFFC00
000001F7FFFFFC00
000001FFFFFFDC00
000003FFFFFFF800
000007DFFFFFF800
00000FFFFFFFF800
00001FFFFFFFF800
00001FFFFFFFF800
00003FFFFFFFF000
00007FFFFFFFF000
0000FFFFEFFF7000
0000FFFFDFFFF000
0001FFFF9FFFE000
0003FFFF1FFEE000
0007FFFF1FFFE000
0007FDFE1FFFC000
000FFFFC3FFFC000
001FFBF83FFFC000
003FFFF03FFF8000
003FFFF03FFF8000
007FEFE07FFF8000
00FFDFC07FFF0000
01FFFF807FFF0000
01FFFF807FFF0000
03FFFF00FFFF0000
07FEFE00FFFE0000
07FFEC00FFFE0000
0FFFDC00FFFE0000
1FFFB801FFFE0000
1FFF703FFFFE0000
3FFEFFFFFFFFF000
3FFFFFFFFFFFF000
7FFFFFFFFFFFC000
7FFFFFFFFFFE0000
7FFFEFFFFFFF0000
7FFFFFFFFFFFC000
7FFFFFFFFFFF0000
7FFFFFFFFFF9C000
FFFFFFFFFFFFC000
FFFFFFFFFFFF8000
FFFFFFFFFFFC0000
DFFFFFFFFFFF8000
FFFFFFFFFFFF8000
7FFFFFFFFFF80000
0000003FFFC00000
0000003FBFC00000
0000007FFFC00000
0000007FFFC00000
0000007FFFC00000
0000007BFF800000
000000FBFF800000
000000FFFF800000
000000FFFB800000
000000FFFB000000
000001FEFB000000
000000B8FF000000
00000038F6000000
00000030F6000000
0000001030000000
0000000030000000
ENDCHAR
STARTCHAR five
ENCODING 53
SWIDTH 561 0
DWIDTH 53 0
BBX 57 69 9 0
BITMAP
0000FFFFFFFFFF00
0003FFFFFFFFFF00
0007E03FFFFFFF80
0003FFFFFFFFFF80
0003FFFFFFFFFF00
0003FFFFFFFFFE00
0007FFFFFFFFF800
0007FFFFFFFFFE00
0007FFFFFFEFFC00
0007FFFFFFFFF800
0007FFFFFFFFE000
000FFFFFFFFFF000
000FFFFFFFFFE000
000FFF8000000000
000FFF0000000000
001FFF0000000000
001FFE0000000000
001FFE0000000000
003FFE0000000000
003FFC0000000000
003FFC1FE0000000
006FFCFFFC000000
007FFFFFFF000000
007FFFFFFFC00000
00FFFFFFFFE00000
00FFFFFFFFF00000
00FFFFFFFFF00000
01FFFFFFFFF80000
01FFFFFE7FF80000
01FFF7FFFFFC0000
03FFFFFFFFFC0000
037FFFFFFFFC0000
03FFFFFFFFEC0000
07FFFFFFFFEC0000
07FFFE0FFFEC0000
07EFF807FFFC0000
07FFF003FFFC0000
07FFC003FFFC0000
01F00003FFFC0000
00000003FFFC0000
00000003FFFC0000
00000003FFF80000
00000007FFF80000
00000007FFF80000
00000007FFF80000
301C000FFFF80000
7FFC000FFFF00000
7FFC000FFFF00000
7FFC001FFFF00000
7FFC001FDFE00000
FFFE003FFFE00000
FFFF003FFFC00000
FFFFE1FFFFC00000
FFFFFFFFFF800000
FFFFFFFFFF800000
FFFFFFFFFF000000
FFFFFFFFF6000000
FFFFFFFFEC000000
7FFFFFFFFC000000
7FFFFFFFF8000000
7FFFFFFFF0000000
3FFFFFFFC0000000
3FFFFFFF80000000
1FFFFFFF00000000
0FFFFFFC00000000
07FFFFF000000000
03FFFFC000000000
007FFF0000000000
0000F80000000000
ENDCHAR
STARTCHAR six
ENCODING 54
SWIDTH 550 0
DWIDTH 52 0
BBX 47 68 9 -1
BITMAP
000000000180
0000000063E0
00000000E760
00000001EFE6
00000003DFCC
00000007BFD8
0000000F7FB0
0000001E7F70
0000001EFFE0
0000003DFFC0
00000079FF80
0000007BFF00
000000F7FE00
000001FFFE00
000003FFFC00
000003FFD800
000007FFF800
00000FFFF000
00000FFF6000
00001FFEC000
00003FFFC000
00003FFF8000
00007FFB0000
0000FFFE0000
0001FFFE0000
0001FFFC0000
0003FFF80000
000FFFF00000
001FFFF70000
003FFEFFFC00
003FFDFFFF00
007FFFFFFF80
007FFFFFFFC0
00FFFFFFFFE0
00FFFFFFFF60
01FFFFFFFFF0
01FFFFFFFFF0
03FFDFFFFFF0
07FFFFFFFFF0
0FFFFFFFFFF8
0FFFF01FFFF8
1FFFC007FFF8
3FFFC007FFF8
3FFF8003FFF8
7FDF8003FFF8
7FBF8003FF78
7FFF0003FFF8
7FFF0007FFF0
7FFF0007FFF0
FFFF000FFFE0
FFFE001FFFE0
FFFE003FFFC0
FFFE00FFFFC0
FFFFFFFFFF80
FFEFFFFFFF80
FFEFFFBFFF00
7FF7FE7FFE00
7FFFFFFBFC00
7FFFFFFFFC00
3FFEF8FFF800
3FFF1FFFF000
1FFFFFFFE000
1FFFFFFFC000
0FF83FFF8000
07FFFFFF0000
03FFFFF80000
00FFFFE00000
001FFE000000
ENDCHAR
STARTCHAR seven
ENCODING 55
SWIDTH 618 0
DWIDTH 58 0
BBX 55 70 16 -2
BITMAP
00FFFF800000FC
00FFFFFFFFFFFE
03FFFFFFFFFFFE
03FFFFFFFFFFFE
00FFFFFFFFFFFC
03FFFFFFFFFFFC
07FFFFFFFFFFF8
0FFFFFFFFFFFE0
0000FFFFFFFFE0
07FFFFFFFFFFF0
0FFFFFFFFFFFF0
0FFFFFFFFFFFE0
1FFFFFFFFFFFC0
0FFFFFFFFFFF80
0FFFFFFFFFFF00
0FFFFFFFFFFE00
00000001FFFC00
00000003FFF800
00000007FFF000
0000000FFFE000
0000000FFFC000
0000001FFF8000
0000003FFF0000
0000007FFE0000
000000FFFC0000
000001FFF80000
000003FFF00000
000007FFE00000
000007FFC00000
00000FFF800000
00001FFF800000
00003FFF000000
00003FFE000000
00007DFC000000
0000FFFC000000
0001FFF8000000
0001FFF8000000
0003FFF0000000
0007FFF0000000
0007FFE0000000
000FFFE0000000
000FFFC0000000
001FFFC0000000
003FFFC0000000
003FFF80000000
007FFF80000000
007FFF00000000
00FFFF00000000
00FFFF00000000
01FFFE00000000
01FFFE00000000
03FFFC00000000
03FFFC00000000
03FFF800000000
07FFF800000000
07FFF800000000
0FFFF000000000
0FFFF000000000
1FFFE000000000
1FFFE000000000
1FFDC000000000
36F9C000000000
3EFBC000000000
7EF38000000000
7FE38000000000
7DC78000000000
7D870000000000
FB880000000000
73000000000000
03000000000000
ENDCHAR
STARTCHAR eight
ENCODING 56
SWIDTH 636 0
DWIDTH 60 0
BBX 57 71 10 0
BITMAP
00000007FFE00000
0000003FFFFE0000
000000FFFFFF8000
000003FFFFFFF000
00000FFFFFDFF800
00001FFFFFFFF800
00003FFFFFFFFC00
0000FFFFFFFFFE00
0001FFFFFFFFFE00
0003FFFFFFFFFE00
0007FFFC07F7FF00
0007FFFFFFFFFF80
000FFFFFFFFFFF80
001FFFFF9FFFFF80
001FFFFE07FFFF80
003FFFF803FFFF80
003FFFF000FFFD80
003FFFE000FFFF80
003FFFC000FFFF80
007FFF8000FFFF80
007FFF8000FFFF80
007FFF8001DFFF00
0077FF8001FFFF00
007EFF8003FFFF00
007EFF8007FFFE00
007FFFE00FFFFE00
003FFFF8FFFFFC00
003FFFFFFFFFF800
003BFFFFFFFFF000
001FFFFBFFFFE000
001FFFFFFFFFC000
001FFFFFFFFF8000
000FFFFFFFFF0000
000FFFFFFFFF0000
000FFFFFFBFF0000
001FFFFFFFFF8000
003FFFFFFFFFC000
00FFFFFFFFFFC000
01FFFFFFFFFFE000
03FFFFFFFFFFE000
07FFFFFFFFFFE000
0EFFFFF1FFFFE000
1DFFFE00FFFFE000
3FFFF8007FFFE000
3FEFF0007FFFE000
7FFFE0003FFFE000
7FFFC0003FFFC000
FFFFC0007FFFC000
FFFF80007FFFC000
FFFF80007FFFC000
FFFF8000FFFFC000
FFFFC001FFF78000
FFFFC001FFFF8000
FFFFE003FFFF0000
FFFFF807FFFE0000
FFFFFE1FFFFE0000
FFFFFFFFFFFC0000
FFFFFFFFFFF80000
7FFFFFFFFFF00000
7FFFFFFFFFF00000
7FFFFFFFFFE00000
7FFFFEF7FFC00000
3FFFFFFFEF800000
3FFFFFFFDF000000
1FFFFFFFFE000000
07FFFFFFF8000000
03FFFFFFF0000000
007FFFFFC0000000
001FFFFE00000000
0003FFF000000000
00007F8000000000
ENDCHAR
STARTCHAR nine
ENCODING 57
SWIDTH 576 0
DWIDTH 54 0
BBX 48 71 16 -2
BITMAP
000001FF8000
00000FFFF000
00001FFFFF00
00007FFFFFC0
0000FFFFFFE0
0003FFFFFFF0
0007FFFFFFF8
000FFFFFFFFC
001FFFFFFEFE
003FFFFFFF7E
007FFFFFFFFF
00FFFFFFFFFF
01FFFFFFFFFF
03FFFFFFFFFF
03FFFF0FFFFF
07FFFC03FFFF
07FFF801FFFF
0FFF7000FFFF
1FFEE000FFFF
1FFFC000FFFE
3FFF8000FFFE
3FFF8000FFFE
7FFF0000FFFC
7FFF0001FFFC
FFFF0001FFFC
FFEF8003FFF8
FFFF8007FFF8
FFFFC00FFFF8
FFFFE01FFFF0
6FFFFFFFDFF0
7FFFFFFFBFE0
7FBFFFFFFFC0
3FFFFFFFFF80
3FFFFFFFFF00
1FF9FFFDFF00
1FFFFFFBFE00
0FFFFFFFFC00
07FFFFFFF800
03FFFFFFF800
00FFFFFFF000
003FFFFFE000
0007FFFFE000
00007FFFC000
00007FFD8000
0000FFFF8000
0001FFFF0000
0003FFFE0000
0003FFFC0000
0007FFFC0000
000FFFF80000
000FFFF00000
001FFFF00000
003FFFE00000
007FFFC00000
007FFF800000
00FFFF800000
01FFFF000000
03FFFE000000
03FF7E000000
077FFC000000
0EFFF8000000
0FFFF0000000
1FFFE0000000
3FFFE0000000
7FFFC0000000
7FFF80000000
FEFF00000000
BE2F00000000
7C0600000000
301C00000000
001800000000
ENDCHAR
STARTCHAR colon
ENCODING 58
SWIDTH 1000 0
DWIDTH 94 0
BBX 1 1 0 0
BITMAP
00
ENDCHAR
STARTCHAR semicolon
ENCODING 59
SWIDTH 1000 0
DWIDTH 94 0
BBX 1 1 0 0
BITMAP
00
ENDCHAR
STARTCHAR less
ENCODING 60
SWIDTH 1000 0
DWIDTH 94 0
BBX 1 1 0 0
BITMAP
00
ENDCHAR
STARTCHAR equal
ENCODING 61
SWIDTH 1000 0
DWIDTH 94 0
BBX 1 1 0 0
BITMAP
00
ENDCHAR
STARTCHAR greater
ENCODING 62
SWIDTH 1000 0
DWIDTH 94 0
BBX 1 1 0 0
BITMAP
00
ENDCHAR
STARTCHAR question
ENCODING 63
SWIDTH 1000 0
DWIDTH 94 0
BBX 1 1 0 0
BITMAP
00
ENDCHAR
STARTCHAR at
ENCODING 64
SWIDTH 1000 0
DWIDTH 94 0
BBX 1 1 0 0
BITMAP
00
ENDCHAR
STARTCHAR A
ENCODING 65
SWIDTH 758 0
DWIDTH 71 0
BBX 65 74 3 -6
BITMAP
00000000001FF80000
00000000003FFC0000
00000000007FFE0000
0000000000FFFE0000
0000000000FFFE0000
0000000001FFFF0000
0000000003EFFF0000
0000000007FFFF0000
000000000FDFFF0000
000000000FDFFF0000
000000001FBFFF0000
000000003FBFFF8000
000000003F7FFF8000
000000007FFFFF8000
00000000FFFFFF8000
00000000FFFFFF8000
00000001FDFFFF8000
00000003FFFFFFC000
00000007FFFFFFC000
00000007FFFFFFC000
0000000FFFDFFFC000
0000001FFFCFFFC000
0000001FFFDFFFE000
0000003FFFBFFFE000
0000007FFFFFFFE000
0000007FFFFFFFE000
000000FFFFFFFFE000
000001FFFFFFFFF000
000001FFFF3FFFF000
000003FFFE1FFFF000
000003FFFE1FFFF000
000007FFFE1FFFF000
00000FFFFC1FFFF000
00000FFFFC1FFFF800
00001FFFF80FFFF800
00003FFFF00FFFF800
00003FFFF00FFFF800
00007DFFE00F7FF800
0000FFFFC00F7FF800
0000FFFFC00F7FF800
0001F7FF800FFFF800
0001FFFF000FFFF800
0003FFFE000FBFF800
0007FFFE000FBFF800
0007FFFFFFFFBFF800
000FFFFFFFFFBFF800
001FFFF83FFFBFFC00
001FFFFFFFDFFBFC00
003FFFFFFF1FFBFC00
007FFFFFFFFFBBFC00
007FFFFFFFFFBFFC00
00FFFFFFFFFFFFFC00
00DFFFFFFFFFFFFC00
01FEFFFFFFFFFFFE00
03BFFFFFFFFFFFFE00
037FFFFFFFFFFFFE00
07FFFFFFFF8FFFFE00
0FFFFFF0000FFFFE00
0FFFFE00000FFFFE00
1FFFFE00000FFFFF00
3FFFFC00000FFFFF00
3FFFFC000007FFFF00
7FFFFC000007FFFF00
6FFFF8000007FFFF00
FFFFF0000007FFFF00
FBCFF0000007FFFF80
F787E0000007FFFF80
EF06C0000007FFF780
0E00800000073EF780
1C00000000031C7380
3800000000031C3900
300000000000183800
200000000000003800
000000000000001000
ENDCHAR
STARTCHAR B
ENCODING 66
SWIDTH 677 0
DWIDTH 64 0
BBX 70 71 2 -3
BITMAP
000000C6FFFFFF8000
00001FFFFFFFFFF800
00007FFFFFFFFFFE00
00007FFFFFFFFFFFC0
000007FFFFFFFFFFE0
00003FFFFFFFFFFFF0
00007FFFFFFFFFFFF8
00000FFFFFFFFFF7F8
00007FFFFFFFFFFBF8
0000FFFFFFFFFFFFFC
00007FFFFFFFFFFFFC
0001FFFFFFFFFCFFFC
0001FFFFFFFFFEFFFC
00003FFFFFFFFFFFFC
00001FFFFF01EFFFFC
00001FFFC000FFFFFC
00001FFFC0003FFDFC
00003FFFC0001FFFF8
00003FEFC0000FFFF8
00003FFF80001FFFF8
00003FFF80001FFFF8
00007FFF80001FFFF0
00007FFF80003FFEF0
00007FFF00007FFFE0
00007FFF0000FFFFC0
0000FFFF0001FFFFC0
0000FFFFFFFFFFFF80
0000FFFFFFFFFFFF00
0001FFFE3FFFFFBE00
0007FFFFFFFFFCF800
0007FFFFFFFFF7F000
0003FFFFFFFFFFE000
000FFFFFFFFFFFC000
001FFFFFFFFFFF8000
001FFFFFFFFFFF8000
000FFFFFFFFFFFC000
000EFFFFFFFFFFE000
000FFFFFFFFFFFF000
001FFFFFFFFFFFF000
001FFFFFFFFFFFB800
001FFFFFFFBFFFB800
001FFFFFFFFFFFF800
001FFFE000FFFFFC00
003FFFE0001FFFDC00
003FFFE0000FDFFC00
0037FFE00007FFFC00
0037FFC00007FFFC00
007FFFC00007FFFC00
007FFFC00007FFFC00
006FFFC0000FFFF800
007FFF80001FFFF800
00FFFF80003FFFF800
00FFFF800FFFFFF800
00FFFF83FFFFFFF800
00FFFFFFFFFFFFF800
1FFFFFFFFFFFFFF800
7FFFFFFFFF7FFFF000
7FFFFFFFE1FFFFF000
01FFFFFFFFFFFFE000
07FFFFFFFFFFFFC000
07FFFFFFFFFFFF8000
0FFFFFFFFFFFFF0000
1FFFFFFFFFFFFE0000
0FFFFFFFFFFFFC0000
0FFFFFFFFFFFF00000
7FFFFFFFFFFFE00000
FFFFFFFFFFFF800000
FFFFFFFFFFFE000000
3FFFFFFFFFF0000000
07FFFFFFFF00000000
07FFF8000000000000
ENDCHAR
STARTCHAR C
ENCODING 67
SWIDTH 627 0
DWIDTH 59 0
BBX 58 70 9 -2
BITMAP
0000000003F80000
000000007FFE0000
00000007FFFF8000
0000001FFFFFE000
0000007FFFFFF000
000001FFFFFFF800
000007FFFFFFF800
00000FFFFFFFFC00
00001FFFFFFFFE00
00003FFFFFFFFE00
00007FFFFFFFFF00
0000FFFFFFFFFF00
0001FFFFFFFFFF00
0003FFFFFFFFFF80
0003FFFFFFFFFF80
0007FFFFFFFFFFC0
000FFFFFFFFEFFC0
001FFFFFC1FEFFC0
001FFFFF00FFEFC0
003FFFFC007F67C0
007FFFF8007BF3C0
00FFFFF00079B1C0
00FFFFE0007D30C0
01FFFFC0003C0080
01FFFF80003C0000
03FFFF0000200000
03FFFF0000000000
03FFFE0000000000
07FFFC0000000000
07FFFC0000000000
07FFF80000000000
0FFFF80000000000
0FFFF00000000000
0FFFF00000000000
1FFFF00000000000
1FEFE00000000000
1FFFE00000000000
3FDFE00000000000
3FDFC00000000000
3FDEC00000000000
3FBEC00000200000
3FBEC00000600000
7FBEC00001E00000
7FBFC00002FE8000
7FFDC00007FD8000
7FFDC0000FFDB000
FFFDC0000FFFB000
FFFFC0001FFFF000
FFFFC0001FBFE000
FFFFC0003FFFC000
DFFFC0007FFFC000
FFFFE000FFFF8000
FFFFF007FFFF8000
FF7DFFFFFFFF0000
FFFFFFFFFFFF0000
7FBFFFFFFFFE0000
7FFFFFFFFFFC0000
7FFFFFFFFFF80000
7FFFFFFFFFF00000
3FFFFFFFFFE00000
1FFFFFFFFFC00000
0FFFFFFFDF800000
07FFFFFFFF000000
03FFFF7FFE000000
01FFFFFFFC000000
00FFFFFFF8000000
007FFFFFE0000000
003FFFFF80000000
000FFFF800000000
0000FF0000000000
ENDCHAR
STARTCHAR D
ENCODING 68
SWIDTH 633 0
DWIDTH 60 0
BBX 65 73 2 -4
BITMAP
000000060000000000
000001FFFFF0000000
000007FFFFFFC00000
000007FFFFFFFC0000
00001FFFFFFFFF0000
00003FFFFFFFFFC000
00002FFFFFFFFFF000
00000FFFFFF7FFF800
00000FFFFFFFFFFC00
00000FFFFFFFFDFE00
00001FFFFFFFFFFE00
00001FFFFFFFFFFF00
00007FFFFFFFFFFF00
00007FFFFFFFFFFF00
00001FFFFFFFFFFF00
00007FFFC03FFFFF80
00007FFF8007FFFF80
00003FEF8001FFFF80
00003FEF8001FFFF80
00007FFF8000FFFF80
00007FFF8000FFFF80
00007FFF0000FFFB80
0000FFFF0000FFFB80
0000FFFF0000FFFB80
0000FFFF0000FFFB00
0001FFBF0000FFFF00
0001FFFF0000FFFF00
0001FFFE0000FFFF00
0001FFFE0000FFFF00
0003FFFE0000FBFE00
0003FFFC0000FFFE00
0003FFFC0000FFFE00
0003FFFC0000FFFE00
0007FFFC0001F7FE00
0007FFF80001FFFC00
0007FFF80001FFFC00
000FFFF80001EFFC00
000FFFF00003EFFC00
000FFFF00003FFFC00
001FFFF00003FFFC00
001FFFF00003FFF800
003FFFE00007DFF800
0037FFE00007FFF800
007FFFC00007FFF800
006EFFC00007FFF000
006EFFC0000FFFF000
00CFFFC0000FFFF000
00DFFFC0000FEFF000
00DFFF80001FFFE000
01DFFF80001FFFE000
01BFFF80001FFFE000
01BFFF80003FFFC000
03BFFD80003FFFC000
03BFFF80007FFF8000
037FFF0000FFFF8000
037FFF0003DFFF8000
037FFB01FFFFFF0000
077FFFFFFFFFFF0000
07FFFFFFFFFFFE0000
07FBFFFFFFFFFC0000
07FFFFFFFFFFFC0000
0FFFFFFFFFFFF80000
1FFFFFFFFFFFF00000
0FF7FFFFFFFFE00000
0FFFFFFFFFFFC00000
07FFFFFFFFBF000000
3FFFFFFFFFFE000000
3FFFFFFFFFF8000000
06FFFFFFFFE0000000
0EFFFFFFFF80000000
7FFFFFFFF800000000
FFFFFFFC0000000000
7FFF80000000000000
ENDCHAR
STARTCHAR E
ENCODING 69
SWIDTH 632 0
DWIDTH 59 0
BBX 65 68 7 0
BITMAP
000007FFFFFE000000
00007FFFFFFFFFFF80
0003FFFFFFFFFFFF80
0007FFFFFFFFFFFF00
000FFFFFFFFFFFFE00
0001FFFFFFFFFFFE00
00003FFFFFFFFFFF00
00007FFFFFFFFFFF00
0000FFFFFFFFFFFE00
0003FFFFFFFFFFFC00
0003EEFFFFFFFFFC00
0000FFFFFFFFFFF000
0000FFFFFFFFFFFE00
0000FFFFFFFFFFFC00
00007FFF8000000000
00007FFF0000000000
00007FFF0000000000
00007FFE0000000000
00007FFE0000000000
00007FFE0000000000
0000FFFC0000000000
0000FBFC0000000000
0000FFF80000000000
0000FFF80000000000
0001FFF80000000000
0001FFF80000000000
0001FFFFFFFFFE0000
0003FFFFFFFFFC0000
0007FFFF9FFFFC0000
0007FFFFFFFDFC0000
0003FFFFFFFFF00000
0003FFFFFFFFE00000
001FFFFFFFFFF80000
003FFFFFFFFFF00000
001FFFFFFFFFC00000
007FFFFFFFFF000000
00FFFFFFFFFF800000
00FFFFFFFFFFF00000
000FFFFFFFFFF00000
000FFFFFE000000000
001FFF800000000000
001FFF800000000000
001FFF800000000000
001FFF800000000000
003FFF000000000000
003FFF000000000000
003FFF000000000000
003FFF000000000000
007FFE000000000000
007FFE000000000000
007FFE000000000000
00FFFE000000000000
00FF76000000000000
00FFFC000000000000
00FFFFFFFFFFF00000
01FFFFFFFFFFE00000
01FFFFFF8003E00000
01FFFFFFFFFFF00000
07FFFFFFFFFFF80000
07FFFFFFFFE0000000
7FFFFFFFFFFFE00000
FFFFFFFFFFFFE00000
3FFFFFFFFFFFE00000
0FFFFFFFFFFFC00000
1FFFFFFFFFFF800000
3FFFFFFFFFFF800000
3FFFFFFFFFFF000000
1FFFFFFF0000000000
ENDCHAR
STARTCHAR F
ENCODING 70
SWIDTH 564 0
DWIDTH 53 0
BBX 61 72 6 -6
BITMAP
00000FF000000000
0000FFFFFFFFFFF8
0000FFFFFFFFFFF8
0000FFFFFFFFFE00
00003FFFFFFFFFF0
00007FFFFFFE1FF0
0001FFFFFFFFFFE0
0003FFFFFFFFFF80
0001FFFFFFFFFFE0
0003FFFFFFFFFFE0
001FFFFC7FFFC7C0
007FFFFFFFFFFFC0
01FFFFFFFFFFFF80
01FFFFFFFFFFFF80
0007FFFFFFFFFE00
0007FFF800000000
0007FFF000000000
0007FFF000000000
000FFFF000000000
000FFEE000000000
000FFEE000000000
001BFFE000000000
001FFFE000000000
001FFFC000000000
001FFFC000000000
0037FFC000000000
003FFF8000000000
007FFFFFFFFF8000
01FFFFFFFFFF8000
01FFFFFFFFFC0000
007FFFFFFFFE0000
00FFFFFFFFFF0000
00FFFFFFFFFF0000
00FFFFFFFFFE0000
00FFFFFFFFF80000
01FFFFFFFFF00000
07FFFFFFFFF00000
07FFFFFFFFFE0000
0FFFFFFFFFFF0000
1FFFFFFFFFFE0000
0BFFFFFFFFFE0000
03FFF0003FF80000
07FFF00000000000
06FFF00000000000
07FFE00000000000
07FFE00000000000
0DFFE00000000000
0FFFE00000000000
0FFFC00000000000
1FFFC00000000000
1BFFC00000000000
1FFFC00000000000
1FFF800000000000
3FFF800000000000
3FFF800000000000
3FFF000000000000
3FFF000000000000
3FFF000000000000
3FFF000000000000
3FFE000000000000
7FFE000000000000
7FEE000000000000
73FE000000000000
71FC000000000000
E3DC000000000000
E3DC000000000000
43DC000000000000
03D8000000000000
07C0000000000000
0600000000000000
0600000000000000
0400000000000000
ENDCHAR
STARTCHAR G
ENCODING 71
SWIDTH 682 0
DWIDTH 64 0
BBX 58 67 12 -1
BITMAP
00000003FFC00000
0000000FFFF80000
0000007FFFFF0000
000001FFDFFFC000
000007FFFFFBF000
00000FFFFFFFFC00
00001FFFFFFFFE00
00003DFFFFEFFF00
00007FFFFFFFFF80
0000FFFFFFFFFF80
0001FFFFFF3FDFC0
0007FFFFFF9FFFC0
000FFFFFFFFFFFC0
001FFFFFFFFEFF80
003FFFFF01FEFF80
003FFFF000FF7F80
007FFFE0007F7F80
00FFFF80003F7F80
00FFFF00003F7F00
01FFFE00001F0C00
01FFFC00003E0000
03FFF800001C0000
03FFF80000000000
07FFF00000000000
07FFE00000000000
0FFFC00000000000
0FFFC00000000000
0FFF800000000700
1FFF8000003FFFC0
1FFF8003FFFFFFC0
1FFF0007FFFFFF80
3FFF001FFFFFFF80
3FFF003FFFFFFF80
7FFE0007FFFFFF80
7FFE003FFFFFFF00
FFFE003FFFFFFF00
FFFE0000FFFFFE00
FFFE000FFFFFFE00
FFFE000FFFFFFE00
FFFC000FFFFFFC00
FFFC001FFFFFFC00
FFFC001FFFDFFC00
DFFC000003FFFC00
DFFC000007FFF800
FFFC000007FFF800
FFFE000007FFF000
FFFE00000FFFF000
FFFE00001FFFE000
FFFF00003FFFE000
FFFF80007FFFE000
FFBFC000FFFFC000
FFBFC001FFFFC000
FFFFE007FFFFC000
FFFFF81FFFFFC000
FFFFFFFFFFFF8000
FFFFFFFFFFFF8000
FFFFFE0FFFFF0000
7FFFFFFFFFFC0000
7FFFFFFFFFF80000
3FFDFFFFFFE00000
1FFFFFFFFFC00000
0FFFFFFFFF000000
07FFFFFFFE000000
01FFFFFFF8000000
00FFFFFF80000000
003FFFFE00000000
0003FFE000000000
ENDCHAR
STARTCHAR H
ENCODING 72
SWIDTH 602 0
DWIDTH 57 0
BBX 66 74 4 -6
BITMAP
000001800000002000
0000018000000DF180
00000380000019E980
0000038000001BF9C0
000007C300001FFFC0
000067C700003FFFC0
0000EFEE00003FFFC0
0000FFFE00003FFF80
0000FFFC00003FEF80
0000FFDC00007FEF80
0001FFFC00007FFF00
0001FFF800007FFF00
0003FFB800007DDE00
0003FFF80000FFFE00
0003FFF80000FFFC00
0003FFF00000FFBC00
0007FFF00000FFBC00
0007FFF00001FFF800
0007FFB00001FFF800
0007FFF00001FFF800
000FFFF00001FFF800
000FFFE00001FF7000
000FFF600001FFF000
000FFFE00003FFF000
001FFFE00003FFF000
001BFFC00003FFE000
001BFEC00003FFE000
003FFFC00007FFE000
003FFF800007FFC000
0037FDC00007FFC000
003FFDFFFFE7FFC000
007FFFFFFFFFFFC000
007FFF3FFFFFFF8000
006FFFFFFFFFFF8000
007FFFFFFFFFFF8000
00FFFFFFFFFFFF8000
00FFFFFFF07FFF0000
00FFFFFFFFFFFF0000
00FFFFFFFFFFFF0000
01FFFFFFFFFFFE0000
01FFFFFFBFFFFE0000
01FFFFFFFFFFFE0000
03FFFFFFFFFFFE0000
03FFFC0000FF7C0000
03FFF80000FFFC0000
03FFF80000FFFC0000
07FFF80000FFFC0000
07FFF80001FEF80000
07FFF00001FFF80000
07FFF00001FFF80000
0FFFF00003FDF00000
0FFFF00003FDF00000
0DFFF00003FFF00000
0DFFE00007FFF00000
1FFFE00007FBE00000
1FFF600007FFE00000
1BFF600007FFE00000
1BFFE0000FFFE00000
3FFEE0000FFFE00000
3FFEC0000FFFC00000
37FEC0000FFFC00000
76FFC0000F7FC00000
7CFD80000F7FC00000
6DFD80001FFFC00000
7DFF00001FFFC00000
F9FB00001EFF800000
F9FF00001FFF800000
7BDA00003FFF800000
73D800003FFF000000
639800003F0E000000
079800003B0E000000
07100000101C000000
070000000038000000
060000000000000000
ENDCHAR
STARTCHAR I
ENCODING 73
SWIDTH 269 0
DWIDTH 25 0
BBX 33 72 6 -3
BITMAP
0000000300
0000307F80
000067FF00
00006FFF00
00007FFF00
00007FFE00
0000FFFE00
0000FBFC00
0003FBFC00
0003F7FC00
0003F7FC00
0003FFF800
0007FFF800
0007EFF800
0007FFF800
0007FFF000
0007FFF000
0007FFF000
0007FFF000
000FFFF000
000FFFF000
001FFFF000
001FFFE000
001FFBE000
003FFFE000
003FFFC000
003FF7C000
007FF7C000
007FFF8000
007FEF8000
007FFF8000
00FFFF0000
00FFFF0000
00FFFF0000
01FFFE0000
01FFFE0000
01FFFE0000
01FFFE0000
03FFFE0000
03FFFE0000
03FFFC0000
07FFFC0000
07FFFC0000
07FFFC0000
0FFFFC0000
0FFFFC0000
0FFFF80000
1FFFF80000
1FFFF80000
1FFFF80000
3FEFF00000
3FFFF00000
3FFFF00000
7FDFE00000
7FDFE00000
7FFFE00000
7FFFE00000
7FFFE00000
7FFFC00000
7FFFC00000
7FFFC00000
FFFFC00000
FFFD800000
FFFD800000
FFFF800000
FFFB000000
FDFB000000
FDFA000000
FFF8000000
7FF8000000
7FF8000000
9F18000000
ENDCHAR
STARTCHAR J
ENCODING 74
SWIDTH 515 0
DWIDTH 48 0
BBX 59 71 1 -2
BITMAP
0000000000000460
00000000000E6EE0
00000000001FECE0
00000000001FEFC0
00000000003FEFC0
00000000003FEFC0
00000000003FFFC0
00000000003FFFC0
00000000007FFFC0
00000000007FFF80
00000000007FFF80
00000000007FFF80
0000000000FFFF80
0000000000FFFF80
0000000000FFFF00
0000000001FFFF00
0000000001FFFF00
0000000001FFFF00
0000000001BFFF00
0000000003FFFE00
0000000003FFFE00
00000000037FFE00
00000000037FFE00
0000000007FFFE00
0000000007FFFC00
0000000006FFFC00
0000000007FFFC00
000000000FFFFC00
000000000FFFF800
000000000DFFF800
000000000FFFF800
000000001FFFF800
000000001FFFF800
000000001FFFF000
000000001FFFF000
000000003FFFF000
000000003FFFE000
000000003FFFE000
000000003FFFE000
000000007FFFC000
000000007FFFC000
000000007FFF8000
00000000FFFF8000
00000000FFFF0000
00000000FFFF0000
00000001FFFF0000
00000001FFFE0000
00000001FFFE0000
00000003FFFC0000
00000003FFFC0000
00000003FFFC0000
00000007FFF80000
00000007FFF80000
0030000FFFF00000
0030001FFFF00000
003C003FFFE00000
007FE3FFFFE00000
07FFFFFFFFC00000
0FFFFFFFFF800000
EFFFFFFFFF800000
FFFFFFFFFF000000
3FFFFFFFFE000000
0FEFFFFFFC000000
07FFFFFFF8000000
3FFFFFFFE0000000
1FFFFFFFC0000000
1FFFFFFF00000000
0FFFFFFE00000000
03FFFFF800000000
00FFFFC000000000
000FFE0000000000
ENDCHAR
STARTCHAR K
ENCODING 75
SWIDTH 645 0
DWIDTH 61 0
BBX 72 72 4 -2
BITMAP
000001E00000000000
000001E00000000000
000003F8000000001E
000003F8000003D83F
000033FD000007B8FC
000077FF00001F39F8
000077FF00003E7FF0
00007FFF00007CFFE0
00007FFE0000FDFFC0
00007FFE0001FBFF80
00007FFE0003F7FF00
0000FFFE0007EFFE00
0000FFFC000FDFFC00
0000FFFC001FBFF800
0000FFFC003FFFF000
0000FBFC007FFFE000
0001FFFC00FFFFC000
0001FFFC01FFFF8000
0001F7F803FFFF0000
0001FFF807FFFF0000
0001FFF80FFFFE0000
0003FFF01FFFF80000
0003FFF03FFEF00000
0003FFF07FFDE00000
0007FFF1FFF7C00000
0007FFE3FFFF000000
0007FFE7FFFE000000
000FFFEFFFFC000000
000FFFFFFFFC000000
000FFFFFFFF8000000
001FFFFFFFF0000000
001FFFFFFFE0000000
001FFFFFFFE0000000
003FFFFFFFE0000000
003FFFFFFFE0000000
007BFFFFFFF0000000
007FFFFFFFF0000000
007FFFFFFFF0000000
00F7FFFFF7F0000000
00FFFFFFFFF8000000
00FFFFFFFFB8000000
01FFFFFFFFF8000000
01FFFFFFFFF8000000
01FFFFBFFFD8000000
03FFFFF7FFFC000000
03FFEFC7FFFC000000
03FFFF83FFFE000000
03FFFE03FFFE000000
07FBD803FFFE000000
07FFD803FFFF000000
07FFF803FFFF000000
07F7B003FFFF000000
0FF7B001FFFF800000
0FFFE001FFFF800000
0FFFE001FFFF800000
0FFFE001FFFF800000
1FFFC000FFFFC00000
1FFFC000FFFFC00000
1FFBC0007FFFC00000
3FFB80007FFFE00000
3FFB80003FFF600000
3FF780003FFFE00000
3FF780001FFBF00000
7FF700000FFFF00000
7FF700000FFFF80000
FFF7000007FFF80000
FFFE000007FFFC0000
FFEE000003FFFC0000
7E0E000001F79E0000
3E0C000001A7040000
000000000003000000
000000000002000000
ENDCHAR
STARTCHAR L
ENCODING 76
SWIDTH 552 0
DWIDTH 52 0
BBX 47 71 5 -2
BITMAP
000000400000
000000C00000
000004C90000
00007ECB0000
00007EDF0000
000077DE0000
0000EFFE0000
0000EFFE0000
0000CFFC0000
0001CFFC0000
0001DFFC0000
0003DFFC0000
00039FF80000
0003FF780000
0003FFF80000
0007FFF00000
0007FFF00000
0007FFF00000
0007FFF00000
000FFFE00000
000FFFE00000
000FFFE00000
001FFFE00000
001FBFC00000
001FFFC00000
003FFFC00000
003FFF800000
003FFF800000
007FFF800000
007FFF800000
007FFF800000
007FFF800000
00FFFF800000
00FFFF800000
00FFFF000000
01FFFF000000
01FFFF000000
01FFFF000000
01BFFF000000
03BDFE000000
03FFFE000000
03FFFE000000
037FFE000000
07FFFC000000
07FFFC000000
07FFFC000000
07FFFC000000
0FFFD8000000
0FFFF8000000
0FFFF8000000
1FFFF0000000
1FFFF0000000
1FFFF0000000
1FFFF0000000
3FFFFE03FF80
3FFFFFFFFFFE
3FFFFFFFFFFC
3FFFFFFFFFF8
7FFFFFFFFFFC
7FFFFFFFDFFC
7FFFFFFFFFF0
7FFFFFFFFF00
7FFFFFFFFFC0
7FFFFFFFFFC0
7FFFFFFFFFC0
7FFFFFFFFFC0
7FFFFFFFFFF0
7FFFFFFFFFF0
FFFFFFFFFE00
7FFFFFFE0000
000C00000000
ENDCHAR
STARTCHAR M
ENCODING 77
SWIDTH 968 0
DWIDTH 91 0
BBX 98 76 4 -8
BITMAP
000000000000000000E0006000
000003000FE0000001FF01F840
00001F007FE000000FFFF3F8C0
00003F60FFF600001FFFFFFBC0
00003F70FFF600001FFFFFF7C0
00003FF1FFF600001FFFFFF7C0
00007FF1FFF600003FFFFFFF80
00007FF3FFFE00003FFFFFFF80
00007FF3FFFE00007FFFFFFF80
00007FE3FFFE00007FFFFFFF80
00007FE7FFFE0000FFFFFFFF80
0000FFE7EFFE0001FFFFFFFF80
0000FFEFFFFE0003FFFFFFFF00
0000FFDFFFFE0003FFFFFFFF00
0000FFDFFFFE0007FFFFFFFF00
0000FFFFFFFE000FFFFFFFFE00
0001FFFFFFFE000FFFFFFFF600
0001FFFFFFFE001FDFFFFFFE00
0003FFFFFFFC001FFFFFFFFE00
0003FFFFFFFC001FFFFFFFFC00
0003FFFFFFFC003FFFFFFFFC00
0007FFFFFFFC003F7FFFFFEC00
0007FFBFFFFC007FFFFFFFFC00
000FFFFFFFFC007FFFFFFFFC00
000FEFFEFFFC007FFFFFFFFC00
000FFFFEFFFC00FFFFFFFFFC00
000FDFFEFFFC00FFFFFFFFF800
001FFFFCFFFC00FFFFFFFFB800
001FFFFCFFFC01FFFFFFFFF800
001FBFFCFFFC01FFFFFFFFF800
001FFFFCFFFC03FFFEFFFFF000
003FFFF87FFC03FFFDFFFFF000
003FFFF87FFC07FFFDFFFFF000
003FFFF87FFC07FFF9FFFFE000
007FFFF87FFC0FFFFBFFFFE000
007FFFF07FFC0FFFF3FFFFE000
007FFFB07FFC1FFFE3FFFFC000
007FF7F07FF81FFFE3FFFFC000
00FFFFE07FF83FFFC7FFFFC000
00FFFF607FF83FFF87FFFF8000
00FFFFE07BF87BFF87FFFF8000
00FFFFE07FF87FFF07FFFF8000
01FFFFC07FF8F7FF07FFFF8000
01FFFEC07FF9FFFE0FFFFF0000
01FFFFC07FF9FFFC0FFFFF0000
03FFFF80FFFBFFFC0FFFFF0000
03FFFF80FFFFFFF80FFFFE0000
03FFFF00FFFFFFF80FFFFE0000
03FFFF00FFFFFFF01FFFFE0000
07FFFF00FFFFFF601FFFFC0000
07FDFE00FFFFFEE01FDFFC0000
07FFFE00FFFFFFC03FFFFC0000
07FFFE00FFFFFFC03FFFF80000
0FFFFC00FFFFFF803FFFF80000
0FFFFC00FFFFFF007FBFF80000
0FFFFC00FFFFFF007FFFF00000
0FFFF8007FFFFE00FFFFF00000
1FFFF8007FFFFC00FF7FF00000
1FFFF8007FFFFC00FF7FE00000
1FFFF8007FFFF801FFFFE00000
3FFFF8007FFFB001FFFFE00000
3FFFF0007FFFF003FEFFE00000
3FFFF0007FFFE003FFFFC00000
3FFFF0007FFFC0037FFFC00000
7FFFF0007FFFC0067FFFC00000
7FFFF0007FFF80067FFF800000
7EFFE0007FFF00067FBF800000
60FFE0003FFE00066F19000000
C0FBC00003F800041F18000000
00F80000000000001B38000000
01F80000000000001830000000
01F00000000000001830000000
00700000000000003800000000
00700000000000003000000000
00200000000000003000000000
00000000000000006000000000
ENDCHAR
STARTCHAR N
ENCODING 78
SWIDTH 645 0
DWIDTH 61 0
BBX 68 76 6 -3
BITMAP
000000000000000C00
000000000000000C00
000000000000000C00
000000000000009E00
00000018000007DE30
00000E3C000007FE70
0000FE7CC00007FEF0
0001FE7FC00007FEF0
0001FEFF80000FFFE0
0001FEFF80000FFFE0
0001FFFF80000FFFE0
0001FFFF80000FFFE0
0001FDFF80001FEFC0
0001FDFF80001FFFC0
0001FFFFC0001FFFC0
0001FFFFC0001FFFC0
0001FFFFC0003FFF80
0003FFFFE0003FFF80
0003FFFFE0003FFF80
0003FFFEF0003FFF00
0007FFFEF0003FFF00
0007FFFEF0007FFF00
0007FFFF78007FFF00
0007FFFF78007FFE00
0007FFFFB8007FFE00
000FFFFFFC00FFFE00
000FFFFFFC00FFFC00
000FFFFFFC00FFFC00
001FFFFFFC01FFFC00
001FFFFFFE01FDFC00
001FFFFFFE01FFF800
001FFFFFFF01FFF800
003FFFFFFF03FBF800
003FFFFFFF837BF000
003FFFFFFF83FFF000
003FFFFFFFC3F7F000
007FFFFFFFC6F7F000
007FFFFFFFC7F7E000
00FFFFCFFFE7FEE000
00FFFFCFFFE7FFE000
00FFFF87FFFFEFC000
01FFFB87FFFFFDC000
01FFFF87FFFFFFC000
03FFFF07FFFFFFC000
03FFFF07FFFFFF8000
03FFFE07FFFFFF8000
07FFF607FFFFFF8000
07FFEE03FFFFFF0000
07FFEE03FFFFFF0000
0FFFEC01FFFFFF0000
0FFFEC01FFFFFB0000
0FFFFC01FFFFFE0000
0FFFF800DFFFFE0000
1FFFF800FFFFFE0000
1FFFF800FFFFFC0000
1FFFF8007FFFFC0000
3FFFF0007FFFFC0000
3FFFF0007FFFFC0000
3EFF60003FFFF80000
3FFF60003FFFF80000
7FFFE0001FFFF80000
7FFEC0001FFFF00000
7FFEC0000FFFF00000
7FFD80000FFFE00000
7FFD800007FFE00000
7FFF800007FFC00000
6FFF000003FF800000
EFFF000003FF000000
FFFF000003FF000000
FFFF000007FF000000
EFF6000006FF000000
CFE60000007F000000
DC600000007E000000
DC0000000038000000
D80000000000000000
C00000000000000000
ENDCHAR
STARTCHAR O
ENCODING 79
SWIDTH 666 0
DWIDTH 63 0
BBX 60 72 10 -3
BITMAP
00000000F8000000
0000000FFFC00000
0000003FBFFC0000
0000007FFFFFE000
000000FFFFFFF800
000001FFFFFFFE00
000003FFFF0F7F00
000007FFFFFFBF80
00001FFFFFFFFF80
00003FFFFFFFFFC0
00007FFFFFFFFEC0
0000FFFFFDDFFFE0
0001FBFFFFFFFFE0
0003F7FFFFFFFFE0
0003EFFFFFFFFFE0
0007DFFFFFFFFFE0
000FDFFFFFFFFFE0
000FBFFF03FFFFE0
001F7DFC007FFFE0
003FFFF0001FFFE0
003FFFE0000FFFE0
007FFFE0000FFFE0
00FFFFC0001FFFE0
00FFFF80001FFFF0
01FFFF80001BBFF0
01FFFF00001BBFE0
03FFFF00001FBFE0
03FFFE00003FBFE0
03FFFE000037BFE0
07BFFC00003FFFE0
07FFFC00007FFFE0
07FFFC00007FFFC0
0F7EFC00007FFFC0
0FFFF80000FFFFC0
0FFFF80000FFFFC0
0EFDF80000FFFF80
1FFDF00001FFFF80
1FFFF00001FFFF00
1FFFF00001FFFF00
3FFFF00003FFFF00
3FFFE00003FFFE00
3FFFE00003FFFE00
3FFFE00007FFFC00
7DFFE00007FFFC00
7DFFC0000FFFFC00
7DFFC0000FFFF800
7FFFC0000FFFF800
7FFFC0001FFFF800
7FFFC0001FFFF800
7FFFC0003FFFF000
7FFFC0003FFFF000
FFFFC0007FFFF000
FFFFC000EFFFE000
FFFFE001DFFFE000
FFFFE003FFFFC000
FFFF700FFFFFC000
FFFFFFFFFFFF8000
FFFFFFFFFFFF0000
7FFFFFFFFFFE0000
7FFFFFFFFFFE0000
7FFFFFFFFFFC0000
7FFFC7FFFFF80000
7FFFFFFFFFE00000
3FFFFFFFFFC00000
3FFFFFFFFF800000
1FFFFFFFFF000000
0FFFFFFFFE000000
07FFFFFFF8000000
01FFFFFFF0000000
00FFFFFF80000000
007FFFFE00000000
000FFFC000000000
ENDCHAR
STARTCHAR P
ENCODING 80
SWIDTH 600 0
DWIDTH 56 0
BBX 64 72 1 -4
BITMAP
00001CEFFFFF0000
00001EFFFFFFF800
00001FFFFFFFFF00
00003FFFFFFFFFC0
00003FFFFFFFFFE0
00003FFFFFFFFFF8
00003F7FFFFFFFFC
00003F7FFFFFFFFC
00007F7FFFFFFFFE
00007FFFFFFC0FFE
00007FFFFFFFEFFE
00007FFFFFFFFFFE
0000FFFFFFFFFFFE
0000FFFFFFFFFFFF
0000FFFF007FFFFF
0000FFFF0003F7DF
0001FFFE0000FFDF
0001FFF600007FDF
0001FFFE00007FDE
0003FFFE00007FDE
0003FFFC00007FFE
0003FFFC0000FFFE
0007FFFC0000EFFC
0007FFF80000EFFC
0007FEF80000CFF8
000FFEF80001DFF8
000FFFF000039FF8
000FFFF00007BFF0
000FFFF0001F7EE0
001FFFE0007EFFE0
001EFFE183FDFFC0
001FFFFFFFFFFFC0
003FFFFFFFFFFF80
003DFFFFFFFFBF00
003FFFFFFEFF7E00
003FEFFFFFFFFC00
003FFFFFFFFFF800
007FFFFFFFFFF000
007FFFFFFFFFE000
007FFFFFFFFF8000
007FFFFFFFFE0000
007FFFFFFFF00000
007FFFFFFF800000
00FFFFFFE0000000
00FFFFFC00000000
00EFFC0000000000
00FFFC0000000000
01FFF80000000000
01FFF80000000000
01FFF80000000000
03FFF80000000000
03FFF80000000000
03FFB80000000000
03FFB80000000000
07FFB00000000000
07FFB00000000000
07FFF00000000000
0FFFF00000000000
0FFFF00000000000
0FFFF00000000000
1FFFF00000000000
1FFFF00000000000
1FFF600000000000
3FFF600000000000
3FFF600000000000
3FFF600000000000
77EFE00000000000
7FDFE00000000000
6DDFE00000000000
F982C00000000000
E000000000000000
C000000000000000
ENDCHAR
STARTCHAR Q
ENCODING 81
SWIDTH 682 0
DWIDTH 64 0
BBX 61 74 13 -3
BITMAP
00000000FFFC0000
0000001FFFFF8000
0000003FFFFFF800
000000FFFFFFFE00
000003FFC7FFFF00
000007FFFFFFFF80
00001FFFFFFFFFC0
00003FFFFFFFFFE0
00007FFFFFFFFFE0
0000FFFFFFFFFFF0
0001DFFFFFFFFFF8
0003BFFFFFFFFFF8
0003FBFFFFFFFFF8
0007F7FFFFFFFFF8
000FFFF7EFFF7FF8
000FFFFF01FFFFF8
001FFFFC00FFFFF8
003FFFF0007FFFF8
003FFE70007FFFF8
007FFEE0003FFFF8
007FFDC0003FFFF8
007FFD80003FFFF8
00FFFF80003FFFF8
00FFDF00003FFFF8
01FFFF00003FFFF8
01FFFE00003FFFF8
01FFFE00003FFFF0
03FFFC00003FFFF0
03FFFC00007FFFF0
03FFFC00007FFFF0
07FFFC00007FFFE0
07FFF800007FFFE0
07FFF800007FFFE0
0FFFF800007FFFE0
0FFBF80000FFEFC0
0FFFF00000FFFFC0
0FFFF00000FFFFC0
1FF7F00001FFDF80
1FF7F00001FFDF80
1FFFE00001FFBF80
3FFFE00001BFBF00
3FFFE00003FFBF00
3FFFC000037F7F00
7FFFC000077FFE00
7FFFC002077EFE00
7FFFC0070EFFFC00
7DFF80078EFFFC00
FDFFC01FCDFFF800
FDFF801FFFFFF800
FDFF801FFFFFF000
FDFF803FFFFFF000
FFFF81FFFFFFE000
FFFF81FFFFFFE000
FFFFC1FFFFFFC000
FFFFC0FFFFFFC000
DFFFE0FFFFFF8000
DFFEE0FFFFFF0000
FFFFF07FFFFE0000
FFFFFC7FFFFC0000
EFFFFFFFFFFC0000
FFFFFFFFFFFE0000
77FFFFFFFFFF0000
7BFFFFFFFFFF8000
3FFFFFFFFFFFC000
1FFFBFFFFFFFC000
0FFFFFFFFFFFE000
07FFFFFFFFFF8000
03FFFFFFFFFF0000
01F7FFFF1FFF0000
00FFFFF80FF80000
003FFFE00FF00000
0007FE0007F00000
0000000003E00000
0000000001C00000
ENDCHAR
STARTCHAR R
ENCODING 82
SWIDTH 620 0
DWIDTH 58 0
BBX 64 80 3 -9
BITMAP
0000000600000000
000000CE00000000
000006EF00000000
000006FFFFFF0000
00000FBFFFFFF800
00007FBFFFFFFF00
00007FBFFFFFFFC0
00007FBFEFFFFFE0
00007F3FFFFFFFF0
00007F7FFFFFFFF8
00007F7FFFFFFFFC
00007E7FFFFFFFFC
00007EFFFFFFBFFE
0000FEFFFFFFDFFE
0000FEFFFFFFEFFE
0000FCFFFFEFF7FF
0000FDFFFFFFFFFF
0000FDFFFFFFFFFF
0000FDFDCFFFFFFF
0001FBFC007FFFFF
0001FBFC001FFFFE
0001FBFC000FFFFE
0003FFFC0007FFEC
0003F7F80007FFFC
0003FFF80007BFFC
0007FFF80007BFFC
0007FFF8000FFFF8
0007FFF0000FFFF8
0007FFF0001FFFF0
000FFFF0001FFBF0
000FFFF0003FFFE0
000FFFF000FFFFC0
001FFFE007FFFF80
001FFFFFFFFFFF00
001FFFFFFFFFFE00
001FFFFFFFFFFC00
003FFFFFFFFF7800
003FFFFFFFFDF000
003FFFFFFFFFC000
007FFFFFFFFF8000
007FFFFFFFFF0000
007FFFFFFFFE0000
00FFFFFFFFFE0000
00FFFFFFFFFE0000
00FFFFFFFFFE0000
00FFFF077FFF0000
01FFFE07FFFF0000
01FFFE03FFFF0000
01FFFE03FFFF0000
03FFFC03FFFF0000
03DFFC03FFFF8000
03FFFC03FFFF8000
03FFFC01FFFF8000
07FEFC01FFFF8000
07FEFC01FFFFC000
07FFF801FFFFC000
0FFFF801FFFFC000
0FFDF800DFFFC000
0FFDF800FFFFC000
1FFFF800FFFFE000
1FFFF0007FFFE000
1B7BF0007FFFE000
3F7FF0007FFFE000
3FFFE0007FFFF000
3FFFE0003FFFF000
7EF7E0003FFFF000
7FFFC0003FFFF000
7FFFC0001FFFF000
FDFFC0001FFFF800
F9FF80000FFFF800
F97D80000FFFF800
F87F800007E1F800
F87F000007F0D800
38FF000007F0E000
31F8000007E0E000
00F0000007606000
00F0000007600000
0070000006600000
0060000000600000
0060000000000000
ENDCHAR
STARTCHAR S
ENCODING 83
SWIDTH 598 0
DWIDTH 56 0
BBX 67 71 1 -3
BITMAP
000000000FFFE00000
00000000FFFFFE0000
00000003FFFFFF8000
0000000FFFFFFFE000
0000003DFFFFFFF800
00000077FFFFFFFC00
000000FFFFF9FFFE00
000001FFFFFFFFFF80
000003FFFFFFFCFF80
000007FFFFFFFF7FC0
00000FFFFFFFFF9FE0
00001FFFFFFFFBCFE0
00001FFFFFFFFDE7E0
00003FFFFC0FFFF3C0
00003FFFF0003FF000
00007FFFE0000FF800
00007FFFC00007F800
00007FFF800003F800
0000FFFF000001D800
0000FFFF0000008000
0001FFFF0000000000
0001FFFF8000000000
0001FFFF8000000000
0003FFFFE000000000
0003FFFFF800000000
0003FFFFFF80000000
0006FFFFFFE0000000
0006FFFFFFFC000000
0006FFFFFFFF000000
0006FFFFFFFFC00000
00077FFFFFFFE00000
0007FFFFFFFFF00000
0003FFDFFFFFF80000
0001FFF7FFFFFC0000
0000FFFFFFFFFE0000
00007FFFFFFFFE0000
00003FFFFFFFFF0000
00000FFFFFFFEF0000
000007FFFFFFFF8000
000001FFFFFFFF8000
0000003FFFFFF78000
00000001FFFFFF8000
000000001FFFFF8000
0000000007FFFF8000
0000000003FFFF8000
0000000003FFFF8000
0000000003FFFF8000
0000000003FFFF0000
0070000003FFFF0000
00FC000007FFFF0000
00FF80000FFFFE0000
C0FFC0001FFFFE0000
E07FF0003FFFFE0000
F83FFC007FFFFC0000
3FFFFF80FFFFFC0000
1FFFFFFFFFFFF80000
6FFFFFFFFFFFF80000
71FFFFFFFFFFF00000
3FFFF7FFFFFFE00000
1FFFFFFFFFFFC00000
0FFFFFFFFFFF800000
07FFFFFFFFFF000000
07FFFFFFFFFE000000
03FFDFFFFFFC000000
01FFFFFFFF78000000
00FFFFFFFDF0000000
007FFFFFFFE0000000
001FFFFFFF80000000
000FFBFFFF00000000
0003FFFFF800000000
00001FFF0000000000
ENDCHAR
STARTCHAR T
ENCODING 84
SWIDTH 699 0
DWIDTH 66 0
BBX 61 76 19 -8
BITMAP
03FFFF807FF80780
07FFFFFFFFFFFF80
07E7FFFFFFFFFFC0
0FFFFFFFFFFFFFF8
0FFFFFFFFFFFFFF8
1FFFFFFFFFF8FFF0
1FFFFFFFFFFFFFE0
FFFFFFFFFFFFF800
FFFFFFFFFFFFFF00
7FFFFFFFFFFFFF80
00001FFFFFFFFF00
00FFFFFFFFFFFC00
07FFFFFFFFFF3C00
0FFDFFFFFFFFFE00
03FFFFFFFFFFF800
003FFFFFFFF00000
00001FFFF8000000
00001FFFF0000000
00001BFFB0000000
00001BFFF0000000
00003FFFF0000000
00003FFF60000000
000037FF60000000
00003FFFC0000000
00003FFFC0000000
00003FFFC0000000
00007FFF80000000
00007FFF80000000
00007FFF80000000
00007FFF80000000
0000FFFF00000000
0000FFFF00000000
0000FFFF00000000
0001FFFF00000000
0001FFFE00000000
0001FFFE00000000
0003FFFE00000000
0003BFFE00000000
0003BFFC00000000
0007FFFC00000000
00077FFC00000000
00077FF800000000
0007FFF800000000
000EFFF800000000
000EFFF800000000
000EFFF800000000
000EFFF000000000
001FFFF000000000
001DFFF000000000
001DFFF000000000
001DFFF000000000
001DFFE000000000
003DFFE000000000
003DFBE000000000
003BFBC000000000
003BF3C000000000
007BF7C000000000
007FF78000000000
007FF78000000000
007FE78000000000
00FFEF8000000000
00FFEF0000000000
00FFDF0000000000
00FFDE0000000000
01FFDE0000000000
01FBDE0000000000
01F3BE0000000000
01E1BC0000000000
0381BC0000000000
0301BC0000000000
0303780000000000
0003700000000000
0003600000000000
0000C00000000000
0000C00000000000
0001800000000000
ENDCHAR
STARTCHAR U
ENCODING 85
SWIDTH 633 0
DWIDTH 60 0
BBX 64 73 9 -2
BITMAP
0000000000000008
000000000000003C
0000000000000378
0000C000000103F8
0001C1700001FFFB
0003FFF00003FFFB
0007DFF00003F7FE
0007DDF00003F7FE
000FD9F00007F7FE
000FBFF00007B7FE
000FBFF00007BFFC
000FBFF00007FFFC
001F7FF00007FFFC
001F7FF0000F6FFC
001FFFE0000FEFF8
001FFFE0000FFFF8
003EFFE0000FFFF8
003FFFC0001FDFF8
003DFFC0001FDFF0
0079FFC0001FFFF0
0079FFC0001FBFF0
00FBFF80003FBFF0
00FBFF80003FBFE0
00F3FF80003FFFE0
01F7FF00007F7FE0
01F7FF00007F7FE0
01F7FF00007F7FC0
01F7FE00007FFFC0
03FFFE0000FEFFC0
03EFFE0000FFFFC0
03EEFE0000FFFF80
03EFFC0000FFFF80
07FFFC0001FFFB80
07FFFC0001FFBB80
07FFEC0001FFFF80
0FFFFC0001FFFF80
0FFFFC0003FFFF00
0DFFF80003FFFF00
0FFFF80003FFFF00
1FFFF80003FFFF00
1FBFF80007FFFE00
1FFFF80007FFFE00
1FFFF80007FFFC00
3FFFF8000FFFFC00
3FFEF8000FFFF800
3FFFF0000FFFF800
3FFFF0001FFFF000
6FFFF0001FFFF000
6FFDB0001FFFE000
7FFDB0003FFFE000
7FFDB0003FFFC000
7FFDF0007FDFC000
7FFDF000FFFFC000
FFFDF000FFFFC000
FFFFF001FFFF8000
FFFEF003FFFF8000
FFFEF807FFFF0000
FFFF781FFFFE0000
FFFF7C7FFFFC0000
7FFFBFFFFFF80000
7FFFCFFFFFF00000
7FFFFFFFFF700000
7FFFFFFFFEE00000
3FFFFFEFFDC00000
3FFFFF7FFB800000
1FFFFFFFFF000000
1FFFFFFFFE000000
0FFFFFFFFC000000
07FFFFFFF0000000
03FFFFFFE0000000
01FFFFFF80000000
007FFFFE00000000
000FFC0000000000
ENDCHAR
STARTCHAR V
ENCODING 86
SWIDTH 636 0
DWIDTH 60 0
BBX 55 70 20 0
BITMAP
00200000000000
00600000000006
6F60000000238E
FF67000000631C
FFE7000003E7B8
EFF6000003CFF8
EFF60000079FF0
F7F600000F9FE0
F7F600001FBFE0
F7F600001FB7C0
FFFE00003FFF80
FFFE00007FFF80
FFFF00007FDF00
FFFF0000FFFF00
FFFF0001FFBE00
FFFF0001FF7E00
FFFF0003FF7C00
FFFFC003FFFC00
FFFFC007FFF800
FFFFC007FFF800
FFFFC00FFFF000
FFFFC00FFFF000
FFFFC01FFFE000
FFFFC01FFFE000
FFF7803FFFC000
FFF7803FFF8000
FFF7807FFF8000
FFF7807FFF0000
FFF780FFFE0000
FFF781FFFE0000
FF7F81FFFC0000
FF7F83FFF80000
FF7F87FFD80000
7FFF87FFF00000
7FFF8FFFE00000
7FFF9FFFE00000
7FFF9FFFC00000
7FFF9FFFC00000
7FFFBFFF800000
7FFFFFFF000000
7FFFFFFF000000
7FFFFFFE000000
7FFFFFFE000000
7FEFFFFC000000
7FEFFFFC000000
7FFFFFF8000000
3FFFFFF8000000
3FFFFFF0000000
3FFFFFF0000000
3FFFFFE0000000
3FFFFFE0000000
3FFFFFC0000000
3FFFFFC0000000
3FFFFF80000000
1FFFFF80000000
1FFFFF00000000
1FFFFE00000000
1FFFFE00000000
1FFFFC00000000
1FFFF800000000
1FFFF800000000
1FFFF000000000
0FFFF000000000
0FFDE000000000
0FFBE000000000
0FFFC000000000
0FFF8000000000
0FFF8000000000
07FF0000000000
03FC0000000000
ENDCHAR
STARTCHAR W
ENCODING 87
SWIDTH 1030 0
DWIDTH 97 0
BBX 95 74 17 -3
BITMAP
018000000000000000000000
01C000000000000000000C82
07C008000003000000005DC6
0FC18C0000070C000000FDCE
0FD1CC0001CF3C00000DFFDE
1FF9FC0003FE7DC0000DFB9C
1FF9FC00037EFFE0001BFFBC
1FFDFC0007FDFFE0003BFF78
1FFDFC0006FFFFE00037FF70
1FFDFC000FFBFFE00077BFF0
1FFFFC001DF7FFE0006FFFE0
3FFFFC001BFFFFE000EFFFE0
3FFFFC0037EFFFE000DFFFE0
3F7FFC0037FFFFE001FFFFC0
3F7FFC006FFFFFE001BFFFC0
3FF7FC006FFFFFE003FFFF80
3FFFFC00FFFFFFE003FFFD80
3FFFFC00DFFFFFE003FFFF00
3FF7F801FFFFFFE007FFFF00
3FF7F801BFFFFFE007FFFE00
3FFFF803FFFFFFC00F7FFE00
3FFFF8037FFFFFC00FFFFC00
3FFFF807FFFFFFC00EFFFC00
3FFFF806FFFFFFC01FFFF800
3FFFF00DFFFFFFC01FFFF800
3FFFF01FFFFFFFE03FFFF000
3FFFF01BFFFFFFE03FFFF000
3FFFF03FFFFFFFE07FFFE000
3FFFF03FFFFFFFE07FFFE000
7FFFF03FFFFFFFE0FFFFE000
7FFFF07FFFFFFFE0FFFFC000
7FFFF07FFFBFFFE1FFFFC000
7FFFF0FFEF3FFFE1FFFF8000
7FFFF8FFFF3FFFE3FFFF8000
7FFFF9FFDE3FFFE3FFFF0000
7FFFF9FFFC3FFFE3BFFF0000
7FFFFBFFFC3FFFE3FFFF0000
7FFFFFFFF83FFFE7FFF60000
7FFFFFFFF83FFFF6FFFE0000
7FFFFFFFF03FFFFFFFEC0000
7FFFFFFFF03FFFFFFFFC0000
7FFFFFFFF03FFFFFFFD80000
7FFFFFFFE03FFFFFFFD80000
7FFFFFFFE037FFFFFFB00000
7FFFFFFFC03FFFFFFFB00000
7FFFDFFFC03FFFFFFF700000
7FFFFFFF803FFFFFFF600000
7FFFFFFF803FFFFFFEE00000
7FFFFFFF003FFFFFFEC00000
7FFFFFFF003FFFFFFCC00000
FFFFFFFE003FFFFFFD800000
FFFFFFFE003FFFFFF9800000
FFFFFFFC003FFFFFFB000000
FFFFFFFC003FFFFFFB000000
FFFFFFF8003FFFBFFF000000
FFFFFFF8007FFFFFF6000000
FBFFBFF0007FFFFFFE000000
FFFFFFE0007EFFFFFC000000
FF7FFFE0006FFFFFEC000000
FF7FFFC0006FFFFFF8000000
FF7FFF80006FFFFFF8000000
FFFFFF80007FFFFFF8000000
FFEFFF00007FFFBFF0000000
FFEFFE00007FFFFFF0000000
FFEFFE00007FFFFFE0000000
FFFFFC00007FFFFFE0000000
FFFFFC00003FFFFFC0000000
FFFFFC00003FFFF980000000
FFFFF800003FFFF380000000
FFFDF800003FFFFB00000000
FF9C3000001FDDF000000000
C7807000001C38E000000000
E0006000001C308000000000
40000000000C300000000000
ENDCHAR
STARTCHAR X
ENCODING 88
SWIDTH 698 0
DWIDTH 66 0
BBX 75 75 3 -4
BITMAP
00000000000000000800
00000000000000061860
0000000E0000004630E0
0000380F600000FC71C0
00003C7FF00001BCE380
00001E7FB00003FDC780
00001F7FB80007FFCF00
00000F7FF80007FFDE00
00000FFFDC000FFFBC00
00000FFFFC001FFFF800
000007FFEC003FFFF000
000007FDEE007FFFE000
000003FFFE007FFF8000
000003FFFE00FFFF0000
000003FFFE01BFFE0000
000003FFFE037FFE0000
000001BFFE06FFFC0000
000001FFFF0DFFF80000
000001FFFF1DFFF00000
000000FFFF3BFFF00000
000000FFFF77FFE00000
000000FFFFEFFFC00000
0000007FFFDFFF800000
0000007FFFFFFF800000
0000007FFFFFFF000000
00000037FFFFFE000000
0000003FFFFFFC000000
0000003BFFFFFC000000
0000001FFFFFF8000000
0000001FFFFFF0000000
0000000FFFFFE0000000
0000000FFFFFE0000000
00000007FFFFC0000000
00000007FFFF80000000
00000003FFFF00000000
00000007FFFF00000000
0000000FFFFE00000000
0000001FFFFF00000000
0000001FFFFF00000000
0000003FFFFF80000000
0000007FFFFF80000000
000000FFFFFFC0000000
000000FFFFFFC0000000
000001FFFFFFC0000000
000003FFFFFFE0000000
000007FFFFFFE0000000
00000FFFFFFFE0000000
00001FFFFFFFF0000000
00003FFFFFFFF0000000
00007FFFFFFFF0000000
0000FFFFDFFFF8000000
0001FFFF8FFFF8000000
0003FFFF0FFFFC000000
0003FFFE0FFFFC000000
0007FFFC07FFFE000000
000FFFF807FFFE000000
001FFFF007FFEF000000
003FFFE007FFFF000000
007FFFC007FFFF000000
00FFFF8007FFFF800000
01FFFF0003FFFF800000
03FFFE0003FFFF800000
07FFFC0003FFFFC00000
0FFFFC0003FFFFC00000
1FFFF80003BFFFC00000
3FFFF00001BFFFE00000
7FFFE00001DFFFE00000
FFFFC00001DFFFE00000
FFFF800000EFFFE00000
3FFF000000FFEFE00000
0EFE000000786C600000
1FD8000000380C600000
3F100000000004000000
76000000000000000000
60000000000000000000
ENDCHAR
STARTCHAR Y
ENCODING 89
SWIDTH 633 0
DWIDTH 60 0
BBX 54 74 19 -7
BITMAP
0181C000000000
03E3C00000000C
0DF1C00000001C
4FFFC00000023C
7FFFC0000306F8
7FFFC000070FF8
FFFFC000065FD0
7FFFC0000FFFB0
7FFFC0000FFF20
7FFFC0001FFF60
7FFFC0003FFEC0
7FFFC0003FFD80
3FFFC0007FFB80
3FFFC0007FFF00
3FFFE000FFFE00
3FFFE001FFEC00
1FFFE001FFD800
1FEFE003FFF000
0FFFE007FBF000
0FFFE007FFE000
0FFFF00FFFC000
0FFFF01FFF8000
07FF703FFF8000
07FF703FFF0000
07FF707FFE0000
07FF70FFFC0000
07FFF0FFF80000
03FFF1FFF80000
03EFF1FFF00000
03EFF1FFE00000
03FFFBFFE00000
03FFFFFFC00000
03FFFFFFC00000
03FFFFFF800000
03FFFFFF000000
03FFFFFF000000
03FFFFFE000000
03FFFFFC000000
03FFFFF8000000
03FFFFF8000000
03FFFFF0000000
03FFFFE0000000
03FFFFE0000000
03FFFFC0000000
01FFFF80000000
01FFFF00000000
007FFF00000000
00FFFE00000000
00FFFE00000000
00FFFE00000000
00FFFE00000000
00FFFE00000000
00EFFE00000000
01EFFC00000000
01FFFC00000000
01FFFC00000000
01FFFC00000000
03FFF800000000
03FFF800000000
03FFF800000000
07FFF800000000
07FFF800000000
07FFF000000000
07FFF000000000
0FFFF000000000
0FFFF000000000
0FFBF000000000
0EF38000000000
0EF30000000000
06E30000000000
07C30000000000
01830000000000
01830000000000
03000000000000
ENDCHAR
STARTCHAR Z
ENCODING 90
SWIDTH 595 0
DWIDTH 56 0
BBX 67 67 3 -1
BITMAP
0000000000000FFFE0
00000FFFFFFFFFFFE0
00000FFFFFFFFFFFC0
00003FFFFFFFFFFF80
00007FFFCFFFFFFF00
00003FFFFFFFFF3F00
0000FFFFFFFFFFFF00
00007FFFFFFFFFFF00
00003FFFFFFFFFFE00
00007FFFFFFFFFFE00
00001FFFFFFFFFF800
0000FFFFFFFFFFFC00
0001FFE01FFFFFF800
0003FFC7FFFFFFE000
0000003803FFFFC000
0000000007FFFF8000
000000000FFFFF0000
000000001FFFFE0000
000000003FFFFC0000
000000007FFFF80000
00000000FFFFF00000
00000001FFFFE00000
00000003FFFFC00000
00000007FFFF800000
0000000FFFFF000000
0000001FFFFF000000
0000003FFFFE000000
0000007FFFFC000000
000000FFFFF8000000
000001FFFFF0000000
000003FEFFE0000000
000007FDFFC0000000
00000FFBFFC0000000
00001FF7FF80000000
00003FEFFF00000000
00007FDFFE00000000
0000FFBFFC00000000
0000FF7FFC00000000
0001FFFFF800000000
0003FFFFF000000000
0007FFFFE000000000
000FF7FFC000000000
001FEFFF8000000000
001FFFFF0000000000
003FFFFE0000000000
007FF7FC0000000000
00FFEFF80000000000
01FFDFF00000000000
03FFBFE00000000000
07FFFFC00000000000
0FFFFF800000000000
1FFFFF000000000000
3FFFFE000000000000
3FFFFFFFFFFFC00000
77FFFFF07FFFC00000
6FFFFFFFFFFF800000
7FFFFFFFFFFE000000
7FFFFFFFFFF8000000
7FFFFFFFFFFE000000
7FFBFFFFFFFE000000
7FFFFFFFFFF0000000
FFFFFFFFFFF8000000
FFFFFFFFFFFF800000
FFFFFFFFFFFF800000
3FFFFFFFFFF8000000
3FFFFFFFFFC0000000
00003FFFF000000000
ENDCHAR
STARTCHAR a
ENCODING 97
SWIDTH 758 0
DWIDTH 71 0
BBX 65 92 3 -24
BITMAP
00000000001FF80000
00000000003FFE0000
00000000007FFE0000
0000000000FFFF0000
0000000000FFFF0000
0000000001FFFF0000
0000000003FFFF0000
0000000007EFFF0000
0000000007EFFF8000
000000000FDFFF8000
000000001FDFFF8000
000000001FBFFF8000
000000003FFFFF8000
000000007F7FFF8000
00000000FFFFFFC000
00000000FFFFFFC000
00000001FFFFFFC000
00000003FFFFFFC000
00000003FFFFFFC000
00000007FFFFFFC000
0000000FFFEFFFE000
0000000FFFEFFFE000
0000001FFFEFFFE000
0000003FFFDFFFE000
0000003FFFFFFFE000
0000007FFFFFFFE000
000000FFFFFFFFE000
000000FFFFFFFFE000
000001FFFF3FFFF000
000003FFFF1FFFF000
000003FFFE1FFFF000
000007FFFE1FFDF000
000007FFFC1FFDF000
00000FFFFC0FFFF800
00001FFFF80FFFF800
00001FFFF00FFFF800
00003FFFE00FFFF800
00007FFFE00FFFF800
00007FFFC00FFFF800
0000FBFF800FFFF800
0000FFFF800FFFF800
0001F7FF000FFFF800
0003EFFF000FFFF800
0003FFFE000FBFF800
0007FFFFFFFFBFFC00
000FFFFFFFFFBFFC00
000FFFFC1FFFFFFC00
001FFFF8FFFFFDFC00
003FFFFFFF0FFDFC00
003FFFFFFF9FFDFC00
007FFFFFFFFFFFFE00
00FFFFFFFFFFFFFE00
00FFFFFFFFFFFFFE00
01DFFFFFFFFFFFFE00
03FEFFFFFFFFFFFE00
03BFFFFFFFFFFFFE00
07FFFFFFFFFFFFFE00
0FFFFFFFFF0FFFFF00
0FFFFFC0000FFFFF00
1FFFFE00000FFFFF00
1FFFFE00000FFFFF00
3FFFFC000007FFFF00
7FFFFC000007FFFF00
7FFFF8000007FFFF80
FFEFF8000007FFFF80
FBFFF0000007FFFF80
F7FFE0000007FFFF80
EFFFC0000007FFFF80
1FFFC00000073FFF80
1DFF800000073EFF80
3BFF000000033FFF00
3FFE000000003EFE00
0BF0000000003EFC00
07E0000000001EF800
07C0000000001EF000
0780000000000CF000
0780000000000C6000
0780000000000E6000
0780000000000E6000
0F80000000000E6000
0BC0000000000E6000
0FC0000000000E6000
0FC0000000000C6000
0BC000000000006000
0BC000000000007000
07800000000000F000
03000000000000F000
00000000000000F000
00000000000000F000
000000000000017000
00000000000000F000
000000000000007000
ENDCHAR
STARTCHAR b
ENCODING 98
SWIDTH 639 0
DWIDTH 60 0
BBX 67 92 0 -25
BITMAP
000000CDFFFFFE0000
00001FFFFFFFFFC000
00007FFFFFFFFFF000
00007FFFFFFFFFFE00
000006FFFFFFFFFF00
00003FFFFFFFFEFF80
00007FFFFFFFFFFFC0
00000FFFFFFFFFFFC0
00007FFFFFFFFFFFC0
0000FFFFFFFFFFFFC0
00007FFFFF7FFFFFE0
0000FFFFFEBFF7FFE0
0001FFFFFFEFFBFFE0
00001FFFFFFFFFFFE0
00001FFFFF07FFFFE0
00001FFF9C07FFF7E0
00001FFF8C06FFFFC0
00003FFF9C077FFFC0
00003FFF9C063FFFC0
00003FFF1C003FFFC0
00003FFF1C007FFF80
00007FFF1C007FFF80
00007BFE0C00FFFF00
00007FFE0001FFFE00
0000FFFE0003FFFE00
0000F7FFFFFFFFFC00
0000FFFFFFFFFFF800
0000FFFFFFFFFFF000
0003FFFFFFFFFFE000
0007FFFFFFFFEFC000
0003FFFFFFFFFF8000
000FFFFFFFFFFF0000
001FFFFFFFFFFE0000
000FFFFFFFFFFC0000
0007FFFFFFFFFE0000
000FFFFFFFFFFF0000
000FFFFBFFFFFF8000
000DFFFFFFFFFF8000
001FFFFFFFFFFFC000
001FFFFFFFFFFEC000
001FFFFFFFFFFFE000
001FFFE001FFFFE000
001FFFE0001FFF6000
0037FFE0001FFB6000
0037FFC0000FFFE000
003FFFC0000FFFE000
003FFFC0000FFFE000
006FFFC0000FFFE000
007FFFC0001FFFE000
007FFF80003FFBC000
007FFF8001FFFFC000
00FFFF807FFFFFC000
00FFFFFFFFFFFFC000
0FFFFFFFFFFFFF8000
7FFFFFFFFFFFFF8000
7FFFFFFFE3FFFF0000
03FFFFFFFFFFFE0000
03FFFFFFFFFFFE0000
07FFFFFFFFFFFC0000
0FF9FFFFFFFFF80000
0FFFFFFFFFFFF00000
07FFFFFFFFFFE00000
3FFFFFFFFFFF800000
FFFFFFFFFFFF000000
7FFFFBFFFFFC000000
3FFFFFF9FFF0000000
07FFFFF1FFC0000000
03FFFEF9F800000000
000001FFF000000000
000000FFE000000000
000000FFE000000000
000000FFE000000000
00000071E000000000
00000071E000000000
00000070C000000000
00000070C000000000
00000070C000000000
00000070C000000000
00000070C000000000
00000070C000000000
00000070C000000000
000000700000000000
000000700000000000
000000700000000000
000000700000000000
000000700000000000
000000700000000000
000000700000000000
000000B00000000000
000000700000000000
000000700000000000
000000200000000000
ENDCHAR
STARTCHAR c
ENCODING 99
SWIDTH 627 0
DWIDTH 59 0
BBX 59 86 8 -18
BITMAP
0000000003F80000
000000003FFF0000
00000003FFFFC000
0000000FFFFFF000
0000003FFFFFF800
000000FFFFFFFC00
000003FFFFFFFC00
00000FFFFFFFFE00
00001FFFFFFFFF00
00003FFFFFFFFF00
00007FFFFFFFFF80
00007FFFFFFFFF80
0000FFFFFFFFFF80
0001FFFFFFFFFFC0
0003FFFFFFFFFFC0
0007EFFFF7FFFFE0
000FDFFFEFFF6FE0
000FFFFFF0FF7FE0
001FFFFFE07FF7E0
003FFFFEE07FB3E0
007FFFFCE03DF9E0
007FFFF0E03DF9E0
00FFFFE0E03E90E0
00FFFFE0E03E0040
01FFFFC0E01E0000
01FFEF80E0000000
03FFFF80E0000000
03FFFF00E0000000
07FFFE00F0000000
07FFFE00F0000000
07FFFC00F0000000
0FFF7C00D0000000
0FFFF800D0000000
0FF7F800F0000000
0FFFF800E0000000
1FFFF00000000000
1FEFF00000000000
1FFFF00000000000
3FDFE00000000000
3FDFE00000000000
3FDFE00000400000
3FDFE00000C00000
3FFEE00002C00000
7FFEE00007FD8000
7FFEC00007FD8000
7FFEC0000FFB3000
7FFEC0001FFB7000
FFFEC0001FFFE000
FFFEC0003FFFC000
DFFFC0007FFFC000
FFFFE000FFFF8000
FFFFE001FFFF8000
FFFFF007FFFF0000
FFFFFE7FFFFF0000
FFFFFFFFFFFE0000
7FFFFFFFFFFC0000
7FFFFFFFFFF80000
7FFFFFFFFFF00000
7FFFFFFFEFE00000
3FFFFFFFFFC00000
1FFFFFFFFFC00000
0FFFFEFFEF800000
07FFFFFFFF000000
03FFFFFFFE000000
01FFFFFFF8000000
00FFFFBFF0000000
007FFFBFC0000000
003FFFBF00000000
000FFFB800000000
0001FCB000000000
000030B000000000
000030B000000000
0000307000000000
0000307000000000
000038F000000000
000038F000000000
000038F000000000
000038F000000000
0000785800000000
0000787000000000
0000780000000000
0000780000000000
0000780000000000
0000780000000000
0000780000000000
0000300000000000
ENDCHAR
STARTCHAR d
ENCODING 100
SWIDTH 673 0
DWIDTH 63 0
BBX 67 89 3 -20
BITMAP
000000060000000000
000001FFFFF8000000
000007FFFFFFF00000
000007FFFFFFFF0000
00001FFFFFFFFFC000
00003FFFFFFFFFF000
00003FFFFFFFFFF800
00000FFFFFFFFFFC00
00000FFFFFFFDFFE00
00001FFFFFFFFEFF00
00001FFFFFFFFFFF80
00001FFFFFFFFFFF80
00001FFFFFFFFFFFC0
00007FFFFFFFFFFFC0
00007FFFFFFFFFFFC0
00001FFFBFFFFFFFC0
00007FFFFFFFFFFFE0
0000FFFFFFF1FFFFE0
00003FFFFCF0FFFFE0
00007FFFBC70FFFFE0
00007FEFB8707FFFE0
00007FFF98707FFFE0
0000FFFF98707FFFE0
0000FFFF98707FFFE0
0000FFFF18707FFFE0
0000FFFF18603FFFE0
0001FFFF18203FFFE0
0001FFBF38003FFFC0
0001FFFF38003FFFC0
0003FFFE3C007FFFC0
0003FFFE3C007FFFC0
0003FFFE3C007FFF80
0003FFFE3C007FFF80
0007FFFC3C007DFF80
0007FFFC38007FFF80
000FFFFC3800FFFF80
000FFFFC1800FFFF80
001FFFF80000FFFF00
001FFFF80000FBFF00
001FFFF00001FFFF00
003FFFF00001FFFF00
0037FFF00001FFFF00
00777FF00001FFFE00
006FFFE00003FFFE00
006FFFE00003FFFE00
00EFFFE00003FFFE00
00FFFFE00007FFFC00
00DFFFE00007FFFC00
01DFFFE00007FFFC00
01DFFFC0000FFFF800
01BFFFC0001FFFF800
03BFFEC0001FFFF800
03BFFFC0003FFFF000
03BFFF8000FFFFF000
03FFFF807FFFFFE000
036FFFFFFFFFFFE000
037FFFFFFFFFFFC000
03FDFFE3FFFFFFC000
03FFFFFFFFFFFF8000
0FFFFFFFFFFFFF0000
0FFFFFFFFFFFFE0000
0FFFFFFFFFFFFC0000
0FFFFFFFFFFFF80000
07BFFFFFFFFFF00000
1FFFFFFFFFFFC00000
3FFFFFFFFFFF800000
077FFFFFFFFE000000
077FFFFFFFF8000000
7FFFFFF3FFE0000000
FFFFF7F3FFE0000000
FFFFF7FE7FC0000000
0000883C3FC0000000
0000001C1FC0000000
0000001C1FC0000000
0000001C1FC0000000
0000002C0F80000000
0000002C0F80000000
0000001C0F80000000
0000001C0F80000000
0000001C0F80000000
0000003C0F80000000
0000002E1F80000000
0000003C1FC0000000
0000001C1FC0000000
000000001FC0000000
0000000017C0000000
0000000017C0000000
000000000FC0000000
000000000780000000
ENDCHAR
STARTCHAR e
ENCODING 101
SWIDTH 645 0
DWIDTH 61 0
BBX 66 85 8 -18
BITMAP
00000FFFFFFFFFFFC0
00007FFFFFFFFFFFC0
0003FFFFFFFFFFFF80
000FFFFFFFFFFFFF00
000FFFFFFFFFFFFF00
0003FFFFFFFFFFFF00
00007FFFFFFFFFFF00
0000FFFFFFFFFFFF00
0001FFFFFFFFFFFE00
0007FFFFFFFFFFFE00
0007CFFFFFFFFFFE00
0001FFFFFFFFFFFE00
0001FFFFFFFFFFEE00
0000FFFFFFFFFFEC00
00007FFF8000002C00
00007FFF0000002C00
0000FFFF0000002C00
0000FFFE0000002C00
0000FFFE0000002C00
0000FFFC0000002E00
0000FFFC0000001E00
0001FFF80000001E00
0001F7F80000003E00
0001FFF80000003E00
0001FFF80000003E00
0003FFF80000003E00
0003FFFFFFFFFE3E00
0003FFFFFFFFFE1C00
0007FFFF9FFFFC1800
000FFFFFFFFDFC0000
0007FFFFFFFFF80000
0007FFFFFFFFE00000
000FFFFFFFFFF80000
003FFFFFFFFFF80000
003FFFFFFFFFF00000
003FFFFFFFFFC00000
00FFFFFFFFFF000000
01FFFFFFFFFFE00000
010FFFFFFFFFF80000
001FFFFFFFFFF00000
001FFF800000000000
001FFF000000000000
003FFF000000000000
003FFF000000000000
003FFF000000000000
003FFF000000000000
007FFE000000000000
007FFE000000000000
007FFE000000000000
00EFFE000000000000
00EF7E000000000000
00FFFE000000000000
00FFFFFFFF87F00000
01FFFFFFFFFFF00000
01FFFFFF8001F00000
01FFFFFFFFFFF80000
03FFFFFFFFFFF80000
07FFFFFFFFFF000000
4FFFFFFFFFFFE00000
FFFFFFFFFFFFF00000
FFFFFFFFFFFFF00000
0FFFFFFFFFFFE00000
1FFFFFFCFFFF800000
3FFFFFE0FFFF800000
7FFFFFF1E7FF800000
3FFFFFFFDF80000000
3FFFDFFFA780000000
00002FFFC300000000
00001FF80300000000
000017E00300000000
00000FC00780000000
00000F800780000000
00000F800780000000
00000F800780000000
00000F800780000000
00000F800780000000
00000F800780000000
00000F800300000000
00000F800000000000
00000F800000000000
00000F800000000000
000017800000000000
00000F800000000000
00000F800000000000
000007000000000000
ENDCHAR
STARTCHAR f
ENCODING 102
SWIDTH 564 0
DWIDTH 53 0
BBX 59 70 8 -4
BITMAP
00001FFFFFFFFFE0
0001FFFFFFFFFFE0
0001FFFFFFFFFC00
00007FFFFFFFFFC0
0001FFFFFFFFBFC0
0007FFFFFFFFFF80
0007FFFFFFFFFE00
0003FFFFFFFFFFC0
000FFFFFFFFF1F80
007FFFF81FF7FF80
00FFFFFFFFFFFF00
03FFFFFFFFFFFF00
03FFFFFFFFFFFF00
000FFFFFFFFFF800
000FFFE000000000
000FFFE000000000
000FFFE000000000
001FFFC000000000
001FFFC000000000
001FFFC000000000
003FFFC000000000
003FFF8000000000
003FFF8000000000
006FFF8000000000
007FFF0000000000
007FBF0000000000
01FFFFFFFFFF0000
03FFFFFFFFFF0000
03FFFFFFFFF00000
00FFFFFFFFFC0000
01BEFFFFFFFE0000
01FFFFFFFFFE0000
01FFFFFFFFFC0000
03FFFFFFDFE00000
0FFFFFFFFFE00000
0FFFFFFFFFC00000
07FFFFFFFFFC0000
3FFFFFFFFFFC0000
3FFFFFFFFFFC0000
07FFF7FFFFF00000
07FFE3CE00000000
0DFFE38600000000
0FFEE18600000000
0FFFC18600000000
1BFFC18600000000
1FFFC18600000000
1FFF818600000000
1FFF810600000000
3FFF800600000000
3FFF800600000000
3FFF000600000000
3FFF000600000000
3FFF000600000000
7FFF000600000000
7FFE000600000000
7FFE000600000000
7FFE000600000000
7FFC000000000000
7FFC000000000000
FFFC000000000000
F7FC000000000000
E3F8000000000000
C3F8000000000000
C7B8000000000000
87B0000000000000
07B0000000000000
0F80000000000000
0C00000000000000
0C00000000000000
0800000000000000
ENDCHAR
STARTCHAR g
ENCODING 103
SWIDTH 682 0
DWIDTH 64 0
BBX 58 95 13 -26
BITMAP
00000001DFC00000
0000000FFFF80000
0000007FFFFF0000
000001FFCFFFC000
000003FFFFFFF000
000007FFFFFFFC00
00000FFFFFFFFE00
00001EFFFFFFFF00
00003DFFFFEFFF00
00007FFFFFFFFF80
0000FFFFFFFFDF80
0001FFFFFFBFFF80
0003FFFFFFFFFF80
0007FFFFC1FEFF00
000FFFFF00FEFF00
001FFFFF007FFF00
001FFBFE003F7F00
003FFFFE003F7F00
003FFFFE003F0800
007FFF9C003E0000
00FFFF1C00180000
00FFFF0C00000000
00FFFB0C00000000
01FFF30C00000000
01FFF30C00000000
03FFE30C00000000
03FFE30C00000000
03FFE30800000000
07FFC30000000000
07FFC30000000000
0FFFC70000000FC0
0FFF8701FC3FFE40
0FFF8713FFFFFF80
1FFF871FFFFFFF80
1FFF0707FFFFFF80
3FFF0307FFFFFF00
3FFF073FFFFFFF00
3FFF063FFFFFFE00
7FFF0A3FFFFFFE00
7FFE025DFFFFFE00
7FFE000FFFFFFC00
7FFE001FFFFFFC00
7FFE000FFFFFFC00
FFFE001FFFFFF800
7FFE003FFFFFF800
5FFE000007FFF000
7FFE000007FFF000
7FFE00000FFFF000
7FFE00000FFFE000
7FFF00001FFFE000
7FFF00001FFBE000
7FFF80003FFFC000
7FFFC0007FFFC000
7FFFC000FFFF8000
7FBFE001FFFF8000
7FFFE007FFFF8000
7FFFF83FFFFF0000
7FFFFFFFFFFF0000
7FFFFFFFFFFE0000
3FFFFFFFFFFC0000
3FFFFFFFFFFC0000
1FFFFFFFFFF80000
0FFFFFFFFFF80000
07FFFFFFFFF00000
03FFFFFFFFF00000
01FFFFFFFFF00000
00F7FFFFF9E00000
0073FFFFD0E00000
007FFFFF60E00000
003FC0FFC0E00000
0039C07F80E00000
0039807E00E00000
0011807C00E00000
0011807C00E00000
0011803800E00000
0031803800E00000
0011803800F00000
0001803800F00000
0001803800F00000
0001803800F00000
0001803800F00000
0001803800F00000
0001803800D00000
0000803800D00000
0000003800600000
0000003C00000000
0000003C00000000
0000007C00000000
0000007C00000000
0000007C00000000
0000007C00000000
0000007C00000000
000000B400000000
0000007400000000
0000003800000000
ENDCHAR
STARTCHAR h
ENCODING 104
SWIDTH 602 0
DWIDTH 57 0
BBX 66 85 5 -17
BITMAP
000001800000006000
00000380000009E180
00000380000019EB80
0000078000003BFBC0
000007C700003FFBC0
0000E7CF00003FDFC0
0000EFCE00003FFF80
0000FFFE00007FFF80
0000FFDC00007FFF80
0001FFFC00007FFF00
0001FFF80000FDFF00
0001FFF80000FFFE00
0003FFF80000FFFE00
0003FFF80000FFFC00
0003FFF00001FBFC00
0007FFF00001FFFC00
0007FFF00001FFF800
0007FFF00001FFF800
0007FFF00001FFF800
000FFFE00001FFF800
000FFFE00003FFF000
000FFFE00003FF7000
001FFFE00003FFF000
001FFFC00003FFE000
001BFFC00003FFE000
001FFFC00007FFE000
003FFFC00007FFE000
003FFF800007FFC000
0037FF800007FFC000
003FFFE0000FFFC000
007FFFFFFFFFFF8000
007FFFFFFFFFFF8000
006FFF7FFFFFFF8000
007FFFFFC0FFFF8000
00FFFFFFFFFFFF0000
00FFFFFFFFFFFF0000
00FFFFFFF07FFF0000
00FFFFFFFFFFFE0000
01FFFFFFFFFFFE0000
01FFFFFFFFFFFE0000
01FFFFFFFFFFFE0000
01FFF7FFFFFFFC0000
03FFFFFFFFFFFC0000
03FFFF83E0FFFC0000
03FFFB0000FFFC0000
07FFFB0000FEF80000
07FFFD0001FEF80000
07FFFD0001FFF80000
07FFF50001FFF00000
0FFFF30003FDF00000
0FFFF38003FDF00000
0FFFF38003FFF00000
0FFFE38007FFE00000
1FFFE38007FBE00000
1BFF630007FFE00000
1BFF630007FFE00000
1BFFE2000FFFC00000
3FFFC0000FFFC00000
37FEC0000FFFC00000
37FFC0000FFFC00000
37FFC0000FFFC00000
7FFF80000FFFC00000
6FFF80000FFFC00000
7FFF80001FFFC00000
79FF80001FFF800000
F9FF00001FFF800000
FBFE00001FFF800000
F3FE00003FFF000000
F3F800003FFE000000
C73800007F2E000000
073800007B0E000000
07380000383C000000
0E7800000038000000
067800000010000000
007800000000000000
007800000000000000
007800000000000000
007800000000000000
007800000000000000
007800000000000000
007800000000000000
00B800000000000000
00B800000000000000
007000000000000000
003000000000000000
ENDCHAR
STARTCHAR i
ENCODING 105
SWIDTH 269 0
DWIDTH 25 0
BBX 33 92 5 -23
BITMAP
0000000180
0000181380
000039FF80
000037FF80
00003FFF00
00003FEF00
00003FFF00
00007DFE00
0000FDFE00
0000FBFE00
0001FBFC00
0001FBFC00
0001FFFC00
0001F7FC00
0001FFF800
0001FFF800
0001FFF800
0001FFF800
0003FFF800
0003FFF800
0007FFF800
0007FFF000
000FFDF000
000FFDF000
000FFFE000
001FFBE000
001FFBE000
001FFFC000
003FFFC000
003FF7C000
003FFF8000
003FFF8000
007FFF8000
007FFF8000
007FFF0000
00FFFF0000
00FFFF0000
00FFFF0000
01FFFE0000
01FFFE0000
01FFFE0000
03FFFC0000
03FFFC0000
03FFFC0000
07FFFC0000
07FFF80000
0FFFF80000
0FFFF80000
0FFFF80000
1FFFF00000
1FEFF00000
1FEFF00000
3FFFF00000
3FFFF00000
3FDFE00000
7FFFE00000
7FFFE00000
7FFFC00000
7FFFC00000
7FFFC00000
7FFFC00000
7FFF800000
FFFF800000
FFFF800000
FFFF800000
FFFB000000
FFFB000000
FFFF000000
FFFE000000
FFF0000000
7FF8000000
6FF8000000
77F0000000
0FD0000000
0780000000
0780000000
0300000000
0300000000
0380000000
0380000000
0780000000
0780000000
0780000000
0780000000
0780000000
0780000000
0780000000
0780000000
0780000000
0B80000000
0780000000
0300000000
ENDCHAR
STARTCHAR j
ENCODING 106
SWIDTH 515 0
DWIDTH 48 0
BBX 60 88 2 -18
BITMAP
0000000000000200
0000000000033730
000000000007F730
00000000000FF770
00000000000FF7F0
00000000001FF7E0
00000000001BF7E0
00000000001FFFE0
00000000001FFFE0
00000000003FFFE0
00000000003FFFE0
00000000003FFFC0
00000000003FFFC0
00000000003FFFC0
00000000007FFFC0
00000000006FFFC0
00000000006FFFC0
00000000007FFF80
0000000000FFFF80
0000000000DFFF80
0000000000FFFF80
0000000000FFFF00
0000000001FFFF00
0000000001BFFF00
0000000001FFFE00
0000000001FFFE00
0000000003FFFC00
0000000003FFFC00
0000000003FFFC00
0000000007FFF800
0000000007FFF800
000000000FFFF800
000000000FFFF000
000000000FFFF000
000000001FFFF000
000000001FFFE000
000000003FFFE000
000000003FFFC000
000000007FFFC000
000000007FFFC000
000000007FFF8000
00000000FFFF8000
00000000FFFF8000
00000001FFFF0000
00000001FFFF0000
00000001FFFE0000
00000003FFFE0000
00000003FFFC0000
00000003FFFC0000
00000007FFF80000
00000007FFF80000
00000007FFF80000
0000000FFFF00000
0000000FFFF00000
0030001FFFE00000
0070003FFFE00000
003E00FFFFC00000
06FFFFFFFF800000
0FFFFFFFFF800000
EFFFFFFFFF000000
FFFFFFFFFE000000
7FFFFFFFFC000000
1FFFFFEFF8000000
07FFFFFFF0000000
3FFFFFFFE0000000
3FFFFFFF80000000
1FFFFFBF00000000
0FFFFFFC00000000
07FFFFF000000000
00FFFFC000000000
000FFE0000000000
0001F80000000000
0001F00000000000
0000F00000000000
0000F00000000000
0001700000000000
0001700000000000
0001700000000000
0001700000000000
0001F00000000000
0001F80000000000
0001F80000000000
0001F80000000000
0001F80000000000
0002780000000000
0002F80000000000
0001F80000000000
0000F00000000000
ENDCHAR
STARTCHAR k
ENCODING 107
SWIDTH 645 0
DWIDTH 61 0
BBX 70 88 5 -18
BITMAP
000001400000000000
000001E00000000000
000003F8000000003C
000003F8000007B07C
000037FD00000F71F8
000077FF00001EF3F0
00007FFF00007CFFE0
00007FFE0000F9FFC0
00007FFE0001F3FF80
00007FFC0003F7FF00
0000FFFC0007EFFE00
0000FFFC000FDFFC00
0000FFFC001FBFF800
0000FBFC003F7FF000
0000FBFC007FFFE000
0001FFF800FFFFC000
0001FFF801FFFF8000
0001F7F803FFFF0000
0001FFF807FFFE0000
0003FFF80FFFFC0000
0003FFF01FFFF80000
0003FFF03FFFF00000
0007FFF07FFDE00000
0007FFE0FFF7800000
0007FFE1FFEF000000
000FFFE7FFFE000000
000FFFCFFFFC000000
000FFFDFFFF8000000
001FFFFFFFF0000000
001FFFFFFFE0000000
001FFFFFFFC0000000
001FFFFFFFC0000000
003FFFFFFFC0000000
003FFFFFFFE0000000
003BFFFFFFE0000000
007FFFFFFFE0000000
007FFFFFFFE0000000
007FFFFFFFE0000000
00FFFFFFFFE0000000
00FFFFFFFFF0000000
00FFFFFFFFF0000000
01FFFFFFFFF0000000
01FFFFFFFFF8000000
01FFFFEFFFF8000000
03FFFFC7FFF8000000
03FFFF07FFFC000000
03FFF807FFFC000000
03FBF807FFFC000000
07FFF007FFFE000000
07FFB003FFFE000000
07F7B003FFFE000000
0FFFE003FFFF000000
0FFFE003FFFF000000
0FFFE001FFFF000000
1FFFC001FFFF000000
1FFFC001FFFF800000
1FFBC000FFFF800000
3FFF8000FFFF800000
3FFF80007FFFC00000
3FFF00007FFFC00000
3FFF00003FFFE00000
7FFF00001FFFE00000
7FFF00001FFFF00000
7FFF00000FFFF00000
FFFE000007DFF00000
FBFE000007EFF80000
7FFE000003CFF80000
7E3C000003CFFC0000
1E38000001FF080000
0638000001FF000000
0638000000FC000000
0E38000000FC000000
0E38000000F8000000
0E3800000078000000
163800000078000000
1638000000B8000000
0E38000000B8000000
0038000000B8000000
0038000000F8000000
0038000000F8000000
0038000000FC000000
0038000000FC000000
0038000000FC000000
00300000017C000000
00000000017C000000
0000000000FC000000
0000000000FC000000
000000000078000000
ENDCHAR
STARTCHAR l
ENCODING 108
SWIDTH 552 0
DWIDTH 52 0
BBX 47 89 5 -20
BITMAP
000000400000
000000C00000
000004ED0000
00007ECF0000
00007EDF0000
000077DF0000
00006FFE0000
0000EFFE0000
0000EFFC0000
0001CFFC0000
0001DFFC0000
0001DFF80000
00039FF80000
0003FF780000
0007FFF80000
0007FFF00000
0007FFF00000
0007FFF00000
000FFFE00000
000FFFE00000
000FFFE00000
000FFFE00000
000FFFC00000
001FFFC00000
001FFFC00000
001FFF800000
003FFF800000
003FFF800000
003FFF800000
007FFF800000
007FFF800000
007FFF800000
00FFFF800000
00FFFF800000
00FFFF000000
00FFFF000000
01FFFF000000
01FFFB000000
01FFFE000000
01FDFE000000
03FFFE000000
03FFFE000000
03FFFC000000
07FFFC000000
07FFFC000000
07FFFC000000
0FFFF8000000
0FFFF8000000
0FFFF8000000
0FFFF8000000
1FFFB0000000
1FFFB0000000
1FFFF0000000
1FFF70000000
3FFFFFCFFFC0
3FFFFFFFFFFE
3FFFFFFFFFFC
3FFFFFFFFFF8
7FFFFFFFFFFC
7FFFFFFFFFFC
7FFFFFFFFFF0
7FFFFFFFFE00
7FFFFFFFFFC0
7FFFFFFFFFC0
7FFFFFFFFFC0
7FFFFFFFFFC0
7FFFFFFFFFF0
FFFFFFFFFFF0
FFFFFFFFE000
7FFFFFFF0000
07FC7FBE0000
03F83E7C0000
03F01F7C0000
01F01FF80000
01F00FF80000
01F00FF00000
01F00E700000
01F006300000
01F006300000
01F006300000
01F806300000
01F804300000
01F800300000
01E800700000
01F000700000
00F000700000
00E000700000
000000300000
000000300000
ENDCHAR
STARTCHAR m
ENCODING 109
SWIDTH 968 0
DWIDTH 91 0
BBX 96 83 4 -16
BITMAP
000000000000000001800080
0000060017C0000007FE07E2
00003E007FFF80001FFFCFE3
00003EE0FFFF80003FFFDFCF
00007EE1FFFFC0003FFFFFDF
00007FE3FFFFC0007FFFFFDE
00007FE3FFFFC0007FFFFFFE
00007FE3FFFF8000FFFFFFFE
00007FE7FFFF8000FFFFFFFE
0000FFC7FFFF8001FFFFFFFE
0000FFCFFFFF8003FFFFFFFE
0000FFCFFFFF8007FFFFFFFC
0000FFDFFFFF8007FFFFFFFC
0000FFBFFFFF800FFFFFFFFC
0001FFFFFFFF801FFFFFFFFC
0001FFFFFFFF801FFFFFFFF8
0001FFFFFFFF803FFFFFFFB8
0003FFFFFFFF803FFFFFFFF8
0003FFFFFFFF803FFFFFFFF0
0003FFFFFFFB807FFFFFFFF0
0007FFFFFFFB807FFFFFFF70
0007FFFFFFFB80FFFFFFFFF0
000FFFFFFFFB80FFFFFFFFF0
000FDFFDFFFB81FFFFFFFFF0
001FFFFDFFFB81FFFFFFFFF0
001FBFFDFFFB81FFFFFFFFF0
001FFFFDFFFB83FFFFFFFFE0
003F7FF9FFFB83FFFFFFFDE0
003FFFF9FFFB87FFFFFFFFE0
003FFFF9FFFB07FFFFFFFFC0
007FFFF0FFF807FFFBFFFFC0
007FFFF0FFF80FFFF7FFFFC0
007FFFF0FFF80FFFF7FFFF80
007FFFF0FFF81FFFE7FFFF80
00FFFFE0FFF81FFFC7FFFF80
00FFEFE0FFF83FFFCFFFFF00
00FFFFE0FFF83FFF8FFFFF00
00FFFEE0FFF87FFF0FFFFF00
01FFFFC0FFF07FFF0FFFFE00
01FFFFC0FFF0FFFE0FFFFE00
01FFFFC0EFF1FFFE1FFFFE00
01FFFD80EFF1DFFC1FFFFC00
03FFFF80FFF3FFF81FFFFC00
03FFFF81FFF3FFF81FFFFC00
03FFFF01FFF7FFF03FFFF400
03FDFF01FFFFFFF03FFFF400
07FFFE01FFFFFFE03FFFF400
07FFFE01FFFFFFC07FFFF400
07FFFE01FFFFFFC07FFFF400
07FFFC01FFFFFB807FFFF400
0FFFFC01FFFFFF807FFFFC00
0FFFFC01FFFFFF00FFFFFC00
0FF7F801FFFFFE00FFFFFC00
1FFFF800FFFFFE00FFFFDC00
1FFFF800FFFFFC01FFFFD400
1FFFF000FFFFF801FFFFD400
1FFFF000FFFFF803FFFF9400
3FFFF000FFFF7003FFFF9400
3FFFF000FFFFE007FFFF8800
3FFFF000FFFFE007FFFF8000
7FFFF000FFEFC007FFFF0000
7FFFE000FBFF800FFFFF0000
7FFFE000FFFF800DFFFF0000
FFFFE000FFFF000DFFFE0000
FFFFC000FFFE001DFEFE0000
FFFFC0007FFC0019FC640000
C7F780003FF0001CFC600000
03F60000000000003CE00000
03F600000000000030E00000
036600000000000070C00000
036E00000000000060000000
036E00000000000060000000
034E000000000000E0000000
038E000000000000C0000000
038E000000000000C0000000
078E00000000000000000000
078E00000000000000000000
078400000000000000000000
078000000000000000000000
078000000000000000000000
078000000000000000000000
038000000000000000000000
070000000000000000000000
ENDCHAR
STARTCHAR n
ENCODING 110
SWIDTH 645 0
DWIDTH 61 0
BBX 65 88 8 -15
BITMAP
000000000000006000
000000000000006000
000000000000006000
000000000000067000
0000083000001F7980
00007C7800003FFB80
0001FCF900003FF780
0001FCFF80003FF780
0001FDFF00003FFF00
0001FDFF00003FFF00
0001FFFF00007FFF00
0001FBFF00007FFF00
0001FBFF00007FFE00
0001DFFF00007FFE00
0001FFFF8000FFFE00
0001FFFF8000FFFC00
0003FFFFC000FFFC00
0003FFFFC000FFFC00
0003FFFDC000FFFC00
0007FFFDE000FFF800
0007FFFCE001FFF800
0007FFFEF001FFF800
0007FFFEF001FFF800
000FFFFF7001FFF000
000FFFFFF003FFF000
000FFFFFF003FFF000
000FFFFFF803FFE000
000FFFFFF807F7E000
001FFFFFFC07FFE000
001FFFFFFC07FFC000
001FFFFFFE07EFC000
003FFFFFFE0FEFC000
003FFFFFFF0DFF8000
003FFFFFFF0FFF8000
007FFFFFFF0FDF8000
007FFFFFFF1BDF8000
007FFFFFFF9FFF0000
00FFFFFFFF9FFF0000
00FFFFFFFFFFFF0000
00FFFFFFFFFFFF0000
01FFFFFFFFFFFE0000
01FFFFFFFEFFFE0000
03FFFFFFFFFFFE0000
03FFFFFFFFFFFC0000
07FFFE7FFFFFFC0000
07FFEC37FFFFFC0000
07FFFC37FFFFFC0000
0FFFFC33FFFFF80000
0FFFFC33FFFFF80000
0FFFFC33FFFFF80000
0FFFFC33BFFFF00000
1FFFFC21FFFFF00000
1FFFFC01FFFFF00000
1FFFFC00FFFFE00000
3FFFFC00FFFFE00000
3FFFFC007FFFE00000
3EFFFC007FFFE00000
3FFFDC003FFFC00000
3FFEDC007FFFC00000
3FFF8C003FFFC00000
3FFF8C003FFF800000
7FFF80003FFF800000
7FFF80001FFF000000
7FFF00001FFE000000
7EFF00001FFC000000
7F7F00001FFC000000
7E3E00001FFC000000
7E7E00000FFC000000
FFFC00000FFC000000
FFF8000007C8000000
7FF8000007C0000000
0E38000003C0000000
0E38000003C0000000
0C38000003C0000000
1430000003C0000000
1430000003E0000000
1410000003E0000000
1610000007E0000000
1610000007E0000000
0E00000007E0000000
0E00000003E0000000
0E00000005C0000000
1E0000000380000000
1E0000000000000000
160000000000000000
160000000000000000
160000000000000000
0C0000000000000000
ENDCHAR
STARTCHAR o
ENCODING 111
SWIDTH 666 0
DWIDTH 63 0
BBX 56 93 12 -24
BITMAP
00000007C00000
0000001FFE0000
000000FEFFE000
000001FFFFFE00
000003FFFFFFC0
000007FFFFFFE0
00000FFFFC7FF0
00001FFFFFFFF8
00007FFFFFFFFC
0000FFFFFFFFFE
0001FFFFFFFFF6
0003FFFFF77FFE
0007EFFFFFFFFE
0007FFFFFFFFFF
000FFFFFFFFFFF
001FBFFFFFFFFF
001F7FFFFFFFFF
003FFFFC07FFFF
007EF7F001FFFF
007FFFF0007FFF
00FFFFF0007FFF
01FFFFF0007FFF
01FFFFE0007FFF
03FFFEE0007FFF
03FFFEE0007FFF
03FFFCE000FFFF
07FFFCE000DFFF
07FFFCE000FFFE
07FFF8F000FFFE
077FF8F001FDFE
0FFFF8F001BFFE
0EFFF8F001FFFE
0EFFF0F003FFFC
1FFFF0F003FFFC
1DFFF1F003FFFC
3FFFE1F007FFF8
3FFFE1F007FFF8
3FFBE1F007FFF0
3FFBE0F00FFFF0
3FFBC0E00FFFF0
7FFFC0000FFFE0
7FFFC0001FFFE0
7FFFC0001FFFC0
7FFFC0003FFFC0
7FFF80003FFFC0
FFFF80007FFFC0
FFFF80007FFF80
FFFF80007FFF80
FFFF8000FFFF80
FFFF8001FFFF00
FFFF8001BFFF00
FFFFC003FFFF00
FFFFC007FFFE00
EFFEE01FFFFE00
FFFFFFFFFFFC00
FFFFFFFFFFFC00
FFFFFF7FFFF800
FFFFFFFFFFF000
FFFFFFFFFFE000
7FFF1FDFFFC000
7FFFFFFFFF8000
7FFFFFFFFF0000
3FFFFFFFFC0000
3FFFFFFFF80000
1FFFFFFFF00000
0FFFFFFFE00000
07FFFFFFC00000
03FFFEFFC00000
00FFFF9F800000
003FDF1F000000
00003F3F000000
00002FFE000000
00001FFC000000
00001FFC000000
00000F7C000000
00000E1C000000
00000E1C000000
00000E18000000
00000E18000000
00000618000000
00000618000000
00000E18000000
00000E18000000
00000F00000000
00000F00000000
00000F00000000
00000F00000000
00000F00000000
00000F00000000
00000F00000000
00000F00000000
00000E00000000
00000600000000
ENDCHAR
STARTCHAR p
ENCODING 112
SWIDTH 600 0
DWIDTH 56 0
BBX 64 73 1 -5
BITMAP
00000E0000000000
00000E77FFFF8000
00000FFFFFFFFC00
00000FFFFFFFFF00
00000FFFFFFFFFC0
00001FFFFFFFFFF0
00001FF7FFFFFFF8
00001FFFDFFFFFFC
00001FFFFFFFFFFE
00001FFFFFE00FFE
00003FFFFFFF0FFE
00003FFFFFFFF7FE
00007FFFFFFFFFFE
00007FFFFFFFFFFF
00007FFFFFFFFFFF
00007FFB807FFFDF
00007FFF0001FFDF
00007FFF0000FFDF
00007FFF00007FDF
0000FFFF00007FFE
0000FFFE00007FFE
0000FFFE00007FFE
0001FFFE0000EFFE
0001FFBE0000EFFE
0001FFFC0000CFBC
0003FFFC0001DFFC
0003FFFC0003BFF8
0003FFF8601FFFF0
0007FFFFFFFFFFF0
0007BFFFFFFFFFE0
0007BFFFFFEFEFC0
0007FFFFFFFFDF80
000FFFFFFFFF7F00
000FFFFFFFFFEE00
000FFFFFFFFFFC00
000FFFFFFFFFF800
000FFFFFFFFFE000
000FFFFFFFFF0000
000FFFFFFFFC0000
001FFFFFFF8C0000
001FFFFFF80C0000
001FFFE0780C0000
001FFF8078080000
003FFF00780C0000
003FFF0070000000
007FFF0070000000
007FF60070000000
007FF60070000000
00FFEE0078000000
00FFEE0078000000
00FFEC0078000000
01FFDC0078000000
01FFDC0078000000
01FFDC0030000000
03FFB80000000000
03FFB80000000000
07FFF80000000000
07FFF80000000000
07FFF80000000000
0FFFF00000000000
0FFFF00000000000
0FFFF00000000000
1FFFF00000000000
1FFF700000000000
3FFF600000000000
3FFF600000000000
37FF600000000000
7FFFE00000000000
7FDFE00000000000
7F9EC00000000000
F996C00000000000
C000C00000000000
C000800000000000
ENDCHAR
STARTCHAR q
ENCODING 113
SWIDTH 689 0
DWIDTH 65 0
BBX 60 84 14 -14
BITMAP
00000000FFF00000
0000001FFFFF8000
0000007FFFFFF000
000001FFFFFFFC00
000003FF1FFFFE00
00000FFFFFFFFF00
00001FFFFFFFFF80
00003FFFFFFFFFC0
00007FFFFFFFFFC0
0000FFFFFFFFFFE0
0001FFFFFFFFFFE0
0003FBFFFFFFFFF0
0007F3FFFFFFFFF0
0007F7F7FFFEFFF0
000FEFEF87FFFFF0
001FFFFC01FFFFF0
001FFFF000FFFFF0
003FFF6000FFFFF0
003FFEC0007FFFF0
007FFFC0007FFFF0
007FFD80007FFFF0
00FFFF80007FFFF0
00FFFF00007FFFF0
00FFFE00007FFFE0
01FFFE00007FFFE0
01FFFE00007FFFE0
01FFFC00007FFFE0
03FFFC00007FFFE0
03FFFC00007FFFC0
03FFF80000FFFFC0
07FFF80000FFFFC0
07FFF80000FFFFC0
07FFF80000FFFF80
0FFFF00000FFFF80
0FFFF00001FFFF80
0FFFF00001FFFF00
1FFFE00001FFBF00
1FFFE00001FFFF00
1FFFE00003FF7E00
3FFFE000037F7E00
3FFFC00003FFFE00
3FFFC00007FEFC00
3FFFC00006FFFC00
7FFFC0020EFFF800
7FFF80070DFFF800
7DFF80179DFFF800
7DFF801FDFFFF000
FDFF803FFBFFF000
FDFF803FFFFFE000
FFFF80FFFFFFE000
FFFF81FFFFFFC000
FFFF81FFFFFFC000
FFFFC1FFFFFF8000
FFFFC1FFFFFF0000
DFFFE0FFFFDE0000
DFFFE0FFFFFC0000
EFFFF07FFFFC0000
EFFFFFFFFFF80000
6FFFFFFFFFFC0000
77FFFFFFFFFE0000
37FFFFFFFFFF0000
3BFFFFFFFFFF8000
1DFFFFFFFFFF8000
0FFFFFFFFFFF8000
07FFFFFFFFFF0000
03FFFFFFFFFE0000
01FFFFFFFF7C0000
00FFFBF9DFF00000
003FFFE1CFE00000
0007FFC3CFE00000
00000F83C7C00000
00000F83C3800000
00000F83C0000000
00000F83C0000000
00000F83C0000000
00001783C0000000
0000178180000000
00000F8000000000
00001F8000000000
00001F8000000000
0000178000000000
0000178000000000
00000F8000000000
0000070000000000
ENDCHAR
STARTCHAR r
ENCODING 114
SWIDTH 620 0
DWIDTH 58 0
BBX 62 93 4 -23
BITMAP
0000000C00000000
0000008E00000000
000006DE00000000
000005FF801E0000
00006FFFFFFFF000
00007F7FFFFFFE00
00007F7FFFFFFF00
00007F7FFFFFFF80
0000FF7FFFFFFFC0
0000FEFFFFFFFFE0
0000FEFFFFFFFFF0
0000FEFFFFFFFFF0
0000FDFFFFFF7FF8
0000FDFFFFFFBFF8
0000FDFFFFFFFFF8
0000FBFFFFFFDFFC
0001FBFFFFFFFFFC
0001FBFFFFFFFFFC
0001FBFC07FFFFFC
0001F7F800FFFFFC
0001F7F8003FFFFC
0003F7F0001FFFF8
0003EFF0000FFFF8
0003FFF0000FFFF8
0007FFF0001FFFF8
0007FFF0001FFFF0
0007FFE0001FFFE0
0007FFE0003FFFE0
000FFFE0007FFBC0
000FFFE0007FF1C0
000FFFC001FFFF80
001FFFC007FFFFC0
001FFFC07FFFFF80
001FFFFFFFFFFB80
003FFFFFFFFFF380
003FFFFFFFFDF180
003FFFFFFFFFE180
007FFFFFFFFFA180
007FFFFFFFFF3180
007FFFFFFFFC2180
00FFFFFFFFFC0380
00FFFFFFFFFC0380
00FFFFFFFFFC0380
01FFFF3FFFFC0380
01FFFF07FFFC0380
01FFFE07FFFC0180
01FFFE07FFFC0100
03FFFE07FFFE0000
03FFFE03FFFE0000
03FFFC03FFFE0000
03FFFC03FFF60000
07FFFC03FFF60000
07FFFC03FFFF0000
07FDF801FFFF0000
0DFFF801FFFF0000
0FFFF801FFFF0000
0FFFF801FFFF0000
0BFBF000FFFF8000
1FFFF000FFFF8000
1FFFF000FFFF8000
17FFF0007FFF8000
3EFEE0007FFF8000
3FFFE0007FFFC000
3FFFE0007FFFC000
7FFFE0007FFFC000
7FFFE0003FFFC000
7FFFE0003FFFC000
FFFFE0001FFFE000
FFFFE0001FFFE000
FFFFE0000FFFE000
FFFFE0000FF3E000
7FFF200007E3C000
3F3A000007E1C000
073E000007E1C000
07FC000007F1E000
07F800000571C000
0378000000FF8000
03180000007F8000
0318000000778000
0210000000630000
0210000000A30000
0618000000A10000
0018000000A00000
0038000000A00000
0038000000A00000
0038000000A00000
0038000000600000
0038000000600000
0038000000700000
0010000000700000
0000000000B00000
0000000000F00000
0000000000700000
ENDCHAR
STARTCHAR s
ENCODING 115
SWIDTH 598 0
DWIDTH 56 0
BBX 67 86 0 -17
BITMAP
000000000FC3800000
00000000FFFFF80000
00000003FFFFFF0000
0000000FFFFFFFC000
0000003FFFFFFFF000
0000007FFFFFFFF800
000000FFFFF1FFFE00
000001FFFFFFFFFF00
000003FFFFFFF9FF00
000007FFFFFFFFFF80
00000FFFFFFFFFFFC0
00001FFFFFFFF7FFC0
00001FFFFFFFFBFFE0
00003FFFFFFFFF7FC0
00003FFFF807FFBF80
00003FFFF0003FFF80
00007FFFE0000FFC00
00007FFFC00007FC00
0000FFFF800003B800
0000FFFF000001B800
0000FFFF0000013800
0001FFFF8000003800
0001FFFF8000003800
0003FFFFC000005800
0003FFFFF000005800
0003FFFFFE00005C00
0003FFFFFFC0003C00
0007FFFFFFF8003C00
00077FFFFFFE003C00
00037FFFFFFF803C00
0003BFFFFFFFE03C00
0003FFDFFFFFF05C00
0001FFFFFFFFF85C00
0000FFFFFFFFF83800
00007FFFFFFFFC1000
00001FFFFFFFFE0000
00000FFFFF7FFE0000
000003FFFFFFFF0000
000000FFFFFFFF0000
0000001FFFFFFF0000
00000000FFFFFF8000
000000001FFFFF8000
0000000007FFFF8000
0000000003FFFF8000
0000000003FFFF0000
0000000003FFFF0000
0000000003FFFF0000
0038000007FFFF0000
007C000007FFFF0000
00FF80000FFFFE0000
607FE0001FFFFE0000
F07FF8003FFFFC0000
7E3FFE007FFFFC0000
3FFFFFC1FFFFF80000
1FFFFFFFFFFFF80000
33FFFFFFFFFFF00000
3CFFEFFFFFFFE00000
1FFFFFFFFFFFE00000
0FFFFFFFFFFFC00000
07FFFFFFFFFF800000
03FFFFFFFFFF000000
07FFFFFFFFFE000000
01FFFFFFFFFC000000
00FFFFFFFFF8000000
007FFFFFFFF0000000
001FFFF1FFE0000000
000FFFC3FF80000000
0001FFE7FF00000000
0001FFFFFE00000000
00007FFFCE00000000
00003FFF8E00000000
00001FE00E00000000
00001F800E00000000
00000F000E00000000
00000F000E00000000
00000F001E00000000
00001F001E00000000
00001F001E00000000
00001F000E00000000
00001F000C00000000
00001F000000000000
00001F000000000000
00002F000000000000
00002F000000000000
00001F000000000000
00000E000000000000
ENDCHAR
STARTCHAR t
ENCODING 116
SWIDTH 699 0
DWIDTH 66 0
BBX 58 95 21 -27
BITMAP
00FFFF01FC000400
07FFFFFFFFFCFC00
07FFFFFFFFFFFC00
07FFFFFFFFFFFF80
0FFFFFFFFFFFFFC0
0FFFFFFFFFFFFF00
1FFFFFFFFFFFFC00
FFFFFFFFFFFFF800
FFFFFFFFFFFFF800
3FFE1FFFFFFFF800
03FFFFFFFFFFE000
07FFFFFFFFFF8000
07F0FFFFFFFFF000
03FFFFFFFFFFE000
003FFFFFFFFE0000
00001FFFE7FE0000
00003FFFC79C0000
000037FFC31C0000
000037FEC30C0000
00003FFFC30C0000
00003FFF830C0000
00006FFF830C0000
00007FFF830C0000
00007FFF020C0000
00007FFF000C0000
00007FFF000C0000
0000FFFE000C0000
0000FFFE000E0000
0000FFFE000A0000
0000FFFE000A0000
0001FFFC000C0000
0001FFFC000C0000
0001FFFC00180000
0003FFFC00000000
0003FFF800000000
0003FFF800000000
00077FF800000000
00077FF800000000
0007FFF000000000
0006FFF000000000
000EFFF000000000
000EFFF000000000
000DFFE000000000
000DFFE000000000
001DFFE000000000
001DFFE000000000
0019FFC000000000
0019FFC000000000
003BFFC000000000
003BFF8000000000
003BF78000000000
003BF78000000000
007FFF0000000000
007FEF0000000000
0077EF0000000000
00FFEE0000000000
00FFFE0000000000
00FFDE0000000000
00FFDE0000000000
01FFFC0000000000
01FFBC0000000000
01FFBC0000000000
01FFF80000000000
03FFF80000000000
03FFF80000000000
03FFF80000000000
03FFF00000000000
03FFF00000000000
03FFF80000000000
03FFF80000000000
00FFF80000000000
007FF00000000000
003FE00000000000
003E600000000000
003C600000000000
0038A00000000000
0038A00000000000
0038700000000000
0038600000000000
0038200000000000
0038400000000000
0038000000000000
0038000000000000
0038000000000000
0038000000000000
0038000000000000
0038000000000000
003C000000000000
007C000000000000
00BC000000000000
007C000000000000
007C000000000000
007C000000000000
0038000000000000
0018000000000000
ENDCHAR
STARTCHAR u
ENCODING 117
SWIDTH 633 0
DWIDTH 60 0
BBX 62 86 11 -15
BITMAP
0000000000000030
00000000000000F0
0000000000000DE0
0000000000068FE0
000182F0000FFFEC
0007FFF0000FFFEC
0007FFF0000FDFF8
000FBBF0000FDFF8
000FB7F0000FDFF8
001FFFF0001FDFF8
001F7FF0001EFFF0
001F7FF0001FFFF0
001FFFE0001FFFF0
003EFFE0001DFFF0
003FFFE0003DBFE0
003FFFC0003FFFE0
003FFFC0003FFFE0
007FFFC0003F7FE0
007BFF80007F7FC0
007BFF80007FFFC0
00FBFF0000FEFFC0
00F7FF0000FEFF80
00F7FF0000FFFF80
01F7FE0000FFFF80
01F7FE0001FDFF80
01FFFE0001FFFF00
03FFFE0001BFFF00
03EFFC0001FFFF00
03EDFC0003FFFF00
07FFFC00037FFE00
07FFFC0003FF7E00
07FFFC0003FFFE00
0FFFF80007FFFE00
0FFFF80007FFFE00
0DFFF80007FFFE00
0FFFF80007FFFE00
1FFFF8000FFFFC00
1FFFF8000FFFFC00
1FFFF0000FFFFC00
1FFFF0000FFFF800
3FFFF0001FFFF800
3FFFF0001FFFF000
3FFFF0001FFFF000
3FFFF0003FFFE000
6FFFE0003FFFE000
7FFFE0007FFFC000
7FFF60007FFF8000
7FFFE000FFFF8000
FFFFE000FFBF8000
FFFFE001FFFF0000
FFFFE003FFFF0000
FFFFE007FFFF0000
FFFFF00FFFFE0000
FFFEF01FFFFC0000
FFFFF8FFFFF80000
FFFF3FFFFFB80000
FFFF9FFFFFF00000
7FFFFFFFFEE00000
7FFFFFFFFDC00000
7FFFFFFFFB800000
3FFFFFBFF7000000
3FFFFFFFFE000000
1FFFFFFFFC000000
0FFFFFFFF8000000
0FFFFFFFF0000000
07FFF3FFE0000000
01FF83FF80000000
00FFC7DE00000000
007FFF3C00000000
003FFCDC00000000
003FFF1400000000
002FE01400000000
001F801400000000
001F001600000000
001F001600000000
001F001E00000000
001F001E00000000
001F001E00000000
001F001C00000000
001F001C00000000
001F000000000000
001F000000000000
002F000000000000
002F000000000000
0016000000000000
000E000000000000
ENDCHAR
STARTCHAR v
ENCODING 118
SWIDTH 636 0
DWIDTH 60 0
BBX 53 91 21 -22
BITMAP
00200000000000
02600000000218
6F62000000C638
FFE60000038E70
EFE60000079EE0
EFE600000F1FC0
EFE600001F3FC0
EFF600001E7F80
EFF600003F7F00
FFF600007FFF00
FFF600007FFF00
FFFE0000FFFE00
FFFE0001FF7E00
FFFF0001FEF600
FFFF0003FEFE00
FFFF0007FDFE00
FFFF8007FFFE00
FFFF8007FFFE00
FFFF800FFFFE00
FFFF800FFFF600
FFFF801EFFD600
FFFF801FFFD600
FFFF803DFF9600
FFFF803FFF9600
FFFB807FFF1600
FFFB80FFFF1600
FFFB80FFFE1E00
FFFB01FFFE1E00
FEFB03FFFE1E00
FEFB03FFFC1E00
FEFF07FFBC1E00
FFFF0EFFFC1E00
FFFF0FFFFC1E00
7FFF1FFFF81C00
7FFF1FFFF81E00
7FFF3FFFF80C00
7FFF3FFFF00C00
7FFFFFFFF00000
7FFFFFFFD00000
7FFFFFFFF00000
7FFFFFFFE00000
7FFFFFFFA00000
7FFFFFFFE00000
7FFFFFFF400000
7BFFFFFEC00000
3BFFFFF1800000
3FFFFFFF000000
3FFFFFF0000000
3FFFFFC0000000
3FFFFFC0000000
3FFFFF80000000
3FFFFF00000000
1FFFFF00000000
1FFFFE00000000
3FFFFE00000000
1FFFFC00000000
1FFFFC00000000
1FFFF800000000
1FFFF800000000
1FFFF000000000
1FFFF000000000
1FFFF000000000
1FFFF000000000
1FFFE000000000
0FFFE000000000
0FFFE000000000
0FFFC000000000
07FFC000000000
03FFC000000000
01FFC000000000
01FFC000000000
01F3C000000000
00E3C000000000
00E1C000000000
00E1C000000000
00E1C000000000
00E1C000000000
00E1C000000000
00E1C000000000
00E18000000000
00E08000000000
00E00000000000
00E00000000000
00E00000000000
00E00000000000
00E00000000000
00E00000000000
00E00000000000
00E00000000000
00E00000000000
00400000000000
ENDCHAR
STARTCHAR w
ENCODING 119
SWIDTH 1030 0
DWIDTH 97 0
BBX 94 101 18 -31
BITMAP
000000000000000000001300
03C000000006000000003388
07C11800000600000001F79C
07D19C00019E7800001BF738
0FD3DC0003BEF880003BFF78
1FF9FC00077DFBC00037FE70
1FF9FC0006FFFFC00077FEF0
1FFDFC000FFBFFC0006FFFE0
1FFFFC000DF7FFC000EFFDE0
1FFFFC001BFFFFC001DEFFC0
1FFFFC003BEFFFC001DFFFC0
3FFFFC0077DFFFC003BDFF80
3FFFFC006FFFFFC003FFFF80
3FFFFC006FBFFFC0037FFF00
3FFFFC00FFFFFFC007FFFF00
3FFFFC00DFFFFFC007FFFF00
3FFFF801FFFFFFC00FFFFE00
3FFFF801BFFFFFC00FFFFE00
3FFFF803FFFFFFC01FFFFC00
3FFFF8037FFFFFC01FFFFC00
3FFFF807FFFFFFC01FFFF800
3FFFF806FFFFFFC03FFFF800
3FFFF80FFFFFFFC03FFFF000
3FFFF00DFFFFFFC07FFFF000
3FFFF01FFFFFFFC07FFFE000
3FFFF01FFFFFFFC0FFFFE000
3FFFF03FFFFFFFC0FFFFC000
3FFFF03FFFFFFFC0FFFFC000
3FFFF07FFFFFFFC1FFFF8000
3FFFF07FFFFFFFC1FFFF8000
3FFFF07FFF7FFFC3FFFF0000
3FFFF8FFFE7FFFC3FFFF0000
3FFFF8FFDE7FFFC3FFFE0000
3FFFF9FFFC7FFFC7FFFE0000
3FFFF9FFF87FFFC7FFFC0000
3FFFFBFFF87FFFCEFFFC0000
3FFFFFFFF07FFFCFFFFC0000
3FFFFFFFF07FFFFFFFF80000
3FFFFFFFE07FFFFFFFF80000
3FFFFFFFE07FFFFFFFB00000
3FFFFFFFE07FFFFFFFB00000
3BFFFFFFC07FFFFFFF600000
3BFFFFFFC06FFFFFFF600000
3FFFFFFF806FFFFFFEE00000
3FFFDFFF807FFFFFFEC00000
3FFFDFFF807FFFFFFDC00000
7FFFFFFF007FFFFFFD800000
7FFFFFFF007FFFFFF9800000
7FFFFFFE007FFFFFFB000000
7FFFFFFE007FFFFFF3000000
7FFFFFFC007FFFFFF7000000
7FFFFBFC007FFFFFF6000000
7DFFFFF800FFFF7FFE000000
7DFFFFF800FFFFFFEC000000
7FFFBFF000FFFFFFFC000000
7FFFBFE000FDFFFFF8000000
7FFFFFE000FDFFFFF8000000
7FFFFFC000DFFFFFF0000000
7FFFFFC000DFFFFFF0000000
7FFFFF8000FFFFFFF0000000
FFFFFF0000FFFFFFE0000000
FFFFFF0000FFFFFFE0000000
FFFFFE0000FFFFFFC0000000
FFFFFE00007FFFFFC0000000
FFFFFC00007FFFFF80000000
FEFFFC00007FFFFF80000000
FF9FFC00007FFFFF00000000
7F1E7800007FFFFF00000000
7F1FB800003FFFFE00000000
7FFF7000003FFFFE00000000
67FC6000001FC7FC00000000
67F000000007CBFC00000000
03F000000005FDFC00000000
03E000000003F7F800000000
03E000000003C3F800000000
03E000000001C1F800000000
03E00000000181F800000000
03E00000000180F000000000
03E00000000180F000000000
03E00000000180F000000000
07E00000000180F000000000
07E000000001807000000000
07E000000001807000000000
07E000000001807000000000
0BE000000001C07000000000
0BE000000001C0F000000000
0BE00000000180F000000000
07E00000000180F000000000
03C00000000280F000000000
00000000000180F000000000
00000000000000F800000000
00000000000000F800000000
00000000000000F800000000
00000000000001F800000000
00000000000001F800000000
00000000000001F800000000
00000000000002F800000000
00000000000002F800000000
00000000000001F800000000
00000000000001F800000000
00000000000000F000000000
ENDCHAR
STARTCHAR x
ENCODING 120
SWIDTH 698 0
DWIDTH 66 0
BBX 74 92 4 -22
BITMAP
00000000000000003000
000000000000000C70C0
0000000C0000009CE1C0
0000382F600001B9C380
00003C3FF00003718700
00001E7FF00007F38E00
00001F3FF8000FFF9C00
00000F3FF8000FFF3800
00000FFFDC001FFF7000
000007FFFC003FFEE000
000007FFEC007FFDC000
000007FFFC00FFFF8000
000003FFFE01FFFF0000
000003FFFE03FFFE0000
000001FFFE077FFC0000
000001FFFE06FFFC0000
000001FFFE0DFFF80000
000001FFFE1BFFF00000
000001FFFF3BFFE00000
000000FFFF77FFE00000
000000DFFFEFFFC00000
000000FFFFDFFF800000
0000007FFFBFFF800000
0000006FFFFFFF000000
0000007FFFFFFE000000
00000037FFFFFC000000
0000003FFFFFF8000000
0000001FFFFFF8000000
0000001FFFFFF0000000
0000000FFFFFE0000000
0000000DFFFFC0000000
0000000FFFFF80000000
00000007FFFF80000000
00000007FFFF00000000
00000007FFFE00000000
00000007FFFC00000000
0000000FFFFE00000000
0000001FFFFE00000000
0000003FFFFF00000000
0000003FFFFF00000000
0000007FFFFF00000000
000000FFFFFF80000000
000001FFFFFF80000000
000003FFFFFF80000000
000007FFFFFFC0000000
00000FFFFFFFC0000000
00001FFFFFFFE0000000
00003FFFFFFFE0000000
00007FFFFFFFE0000000
0000FFFFDFFFF0000000
0001FFFF8FFFF0000000
0001FFFF0FFFF8000000
0003FF7E0FFFF8000000
0007FFFC07FFFC000000
000FFFF807FFFC000000
000FFFF007FFDE000000
001FFFE007FFFE000000
003FFFC007FFFE000000
007FFF8007FFFF000000
00FFFF0007FFFF000000
01FFFE0007FFFF000000
03FFFC0003FFFF800000
07FFF80003FFFF800000
0FFFF000037FFF800000
1FFFE00003FFFFC00000
3FFFC00001FFFFC00000
7FFF800001FFFFC00000
FFFF000000FFFFC00000
3BF6000000FE7FC00000
07DC0000007C7EC00000
0F980000007CFC400000
1F000000005FF8000000
36000000003FF8000000
20000000001FF8000000
00000000001EF0000000
00000000001C70000000
00000000000C70000000
00000000000C30000000
00000000000C30000000
00000000000C30000000
00000000000C30000000
00000000000C60000000
00000000000C20000000
00000000000C00000000
00000000001C00000000
00000000001C00000000
00000000001C00000000
00000000001C00000000
00000000001C00000000
00000000001C00000000
00000000000C00000000
00000000000C00000000
ENDCHAR
STARTCHAR y
ENCODING 121
SWIDTH 633 0
DWIDTH 60 0
BBX 52 89 21 -22
BITMAP
03030000000000
07C70000000030
1BE70000000070
9DFF00000008F0
FFFF00000C1BE0
FFFF00001C3FE0
FFFF000018FEC0
FFFF000039FFC0
FFFF00003FFD80
FFFF00007FFB80
7FFF8000FFF700
7FFF8000FFEE00
7FFB8001FFEC00
7FFB8001FFDC00
7FFF8003FFB800
3FFF8007FF7000
3FFFC007FFE000
1FFFC00FEFC000
1FFFC01FFDC000
1FFFC01FFF8000
1FFFC03FFF0000
0FFFC07FFE0000
0FFEC07FFE0000
0FFEC0FFFC0000
0FFFC1FFF80000
0FFFC3FFF00000
0FFFE3FFE00000
0FFFE7FFE00000
07DFE7FFC00000
07DFE7FF800000
07DFFFFF800000
07FFFFFF000000
07FFFFFE000000
07FFFFFE000000
07FFFFFC000000
07FFFFF8000000
07FFFFF8000000
0FFFFFF0000000
0FFFFFE0000000
0FFFFFC0000000
07FFFF80000000
07FFFF80000000
07FFFF00000000
07FFFE00000000
03FFFE00000000
03FFFC00000000
01FFF800000000
01FFF800000000
01FFF800000000
01FFF800000000
01FFF800000000
01FFF800000000
03FFF800000000
03FFF800000000
03FFF000000000
03FFF000000000
07FFF000000000
07FFF000000000
07FFE000000000
07FFE000000000
0FFFE000000000
0FFFE000000000
0FFFE000000000
0FFFC000000000
1FFFC000000000
1FFFC000000000
1FFF8000000000
1FFF8000000000
1FFF8000000000
1FFF8000000000
1FFF8000000000
1FFF8000000000
0FFF8000000000
0BFF0000000000
07FF0000000000
05E30000000000
03C50000000000
03C50000000000
03C30000000000
03C30000000000
03C30000000000
07C30000000000
07C20000000000
07C00000000000
07E00000000000
07E00000000000
05C00000000000
03C00000000000
03800000000000
ENDCHAR
STARTCHAR z
ENCODING 122
SWIDTH 595 0
DWIDTH 56 0
BBX 66 86 5 -20
BITMAP
00000000000007F800
000000000000FFFF80
00000FFFFFFFFFFFC0
00001FFFFFFFFFFF80
00007FFFFFFFFFFE00
00007FFFCFFFFFFE00
0000FFFFFFFFBE7E00
0001FFFFFFFFFFFE00
00002FFFFFFFFFFC00
00007FFFFFFFFFFC00
00007FFFFFFFFFF000
00003FFFFFFFFFF800
0001FFFFFFF9FFF000
0003FFFFFFFFFFC000
0003FFFFFFFFFF8000
0000000007FFFF0000
000000000FFFFE0000
000000001FFFFC0000
000000003FBFF80000
000000007F7FF00000
00000000FFFFE00000
00000001FFFFC00000
00000003FFFF800000
00000007FBFF000000
0000000FF7FE000000
0000001FEFFC000000
0000003FFFF8000000
0000007FFFF0000000
000000FFFFF0000000
000001FEFFE0000000
000003FDFFC0000000
000007FBFF80000000
00000FF7FF80000000
00001FEFFF00000000
00003FDFFE00000000
00007FBFFC00000000
0000FF7FF800000000
0001FFFFF000000000
0003FFFFE000000000
0003FFFFC000000000
0007F7FF8000000000
000FEFFF0000000000
001FFFFE0000000000
003FFFFC0000000000
003FFFF80000000000
007FEFF00000000000
00FFDFE00000000000
01FFBFC00000000000
03FFFF800000000000
07FFFF000000000000
0FFFFE000000000000
1FFFFC000000000000
3FFFFFFFFFFF800000
77FFFFF8FFFF800000
6FFDFFFFFFFF000000
7FFFFFFFFFFC000000
7FFFFFFFFFF0000000
7FFFFFFFFFFC000000
7FFBFFFFFFBC000000
7FFFFFFFFFF0000000
7FFFFFFFFFE0000000
FFFFFFFFFFFF000000
FFFFFFFFFFFF000000
3FFFFFFFFFF8000000
3FFFFFFFBFE0000000
0000FFFFDF80000000
00007FFF9F00000000
00005CFF9F80000000
00003C7BFE00000000
00001C71FC00000000
00001FE1F800000000
00000FE0F000000000
000007C0F000000000
000003817000000000
000000017000000000
000000017000000000
000000017000000000
00000000F000000000
00000000F000000000
00000001F000000000
00000001F000000000
00000001F800000000
000000027800000000
00000001F800000000
00000001F800000000
00000000F000000000
ENDCHAR
STARTCHAR logicalnot
ENCODING 172
SWIDTH 1000 0
DWIDTH 94 0
BBX 1 1 0 0
BITMAP
00
ENDCHAR
STARTCHAR acute
ENCODING 180
SWIDTH 1000 0
DWIDTH 94 0
BBX 1 1 0 0
BITMAP
00
ENDCHAR
STARTCHAR acircumflex
ENCODING 226
SWIDTH 1000 0
DWIDTH 94 0
BBX 1 1 0 0
BITMAP
00
ENDCHAR
STARTCHAR quoteright
ENCODING 8217
SWIDTH 1000 0
DWIDTH 94 0
BBX 1 1 0 0
BITMAP
00
ENDCHAR
STARTCHAR .notdef
ENCODING -1
SWIDTH 500 0
DWIDTH 46 0
BBX 34 66 6 0
BITMAP
FFFFFFFFC0
FFFFFFFFC0
FFFFFFFFC0
FFFFFFFFC0
FFFFFFFFC0
FFFFFFFFC0
F8000007C0
F8000007C0
F8000007C0
F8000007C0
F8000007C0
F8000007C0
F8000007C0
F8000007C0
F8000007C0
F8000007C0
F8000007C0
F8000007C0
F8000007C0
F8000007C0
F8000007C0
F8000007C0
F8000007C0
F8000007C0
F8000007C0
F8000007C0
F8000007C0
F8000007C0
F8000007C0
F8000007C0
F8000007C0
F8000007C0
F8000007C0
F8000007C0
F8000007C0
F8000007C0
F8000007C0
F8000007C0
F8000007C0
F8000007C0
F8000007C0
F8000007C0
F8000007C0
F8000007C0
F8000007C0
F8000007C0
F8000007C0
F8000007C0
F8000007C0
F8000007C0
F8000007C0
F8000007C0
F8000007C0
F8000007C0
F8000007C0
F8000007C0
F8000007C0
F8000007C0
F8000007C0
F8000007C0
FFFFFFFFC0
FFFFFFFFC0
FFFFFFFFC0
FFFFFFFFC0
FFFFFFFFC0
FFFFFFFFC0
ENDCHAR
ENDFONT
